solid OpenSCAD_Model
  facet normal -2.22045e-16 -1 0
    outer loop
      vertex 18 -3.9968e-15 900
      vertex 44 -9.76996e-15 875
      vertex 80 -1.77636e-14 900
    endloop
  endfacet
  facet normal -2.22045e-16 -1 0
    outer loop
      vertex 18 -3.9968e-15 700
      vertex 44 -9.76996e-15 875
      vertex 18 -3.9968e-15 900
    endloop
  endfacet
  facet normal -2.22045e-16 -1 -0
    outer loop
      vertex 44 -9.76996e-15 875
      vertex 18 -3.9968e-15 700
      vertex 44 -9.76996e-15 700
    endloop
  endfacet
  facet normal -2.22045e-16 -1 0
    outer loop
      vertex 54 -1.19904e-14 875
      vertex 80 -1.77636e-14 900
      vertex 44 -9.76996e-15 875
    endloop
  endfacet
  facet normal -2.22045e-16 -1 0
    outer loop
      vertex 80 -1.77636e-14 700
      vertex 54 -1.19904e-14 875
      vertex 54 -1.19904e-14 700
    endloop
  endfacet
  facet normal -2.22045e-16 -1 0
    outer loop
      vertex 54 -1.19904e-14 875
      vertex 80 -1.77636e-14 700
      vertex 80 -1.77636e-14 900
    endloop
  endfacet
  facet normal 2.22045e-16 1 0
    outer loop
      vertex 80 -1.77636e-14 300
      vertex 54 -1.19904e-14 25
      vertex 54 -1.19904e-14 300
    endloop
  endfacet
  facet normal 2.22045e-16 1 0
    outer loop
      vertex 54 -1.19904e-14 25
      vertex 80 -1.77636e-14 0
      vertex 44 -9.76996e-15 25
    endloop
  endfacet
  facet normal 2.22045e-16 1 -0
    outer loop
      vertex 80 -1.77636e-14 0
      vertex 54 -1.19904e-14 25
      vertex 80 -1.77636e-14 300
    endloop
  endfacet
  facet normal 2.22045e-16 1 -0
    outer loop
      vertex 44 -9.76996e-15 25
      vertex 3.9968e-15 -8.87469e-31 300
      vertex 44 -9.76996e-15 300
    endloop
  endfacet
  facet normal 2.22045e-16 1 0
    outer loop
      vertex 44 -9.76996e-15 25
      vertex 3.9968e-15 -8.87469e-31 0
      vertex 3.9968e-15 -8.87469e-31 300
    endloop
  endfacet
  facet normal 2.22045e-16 1 0
    outer loop
      vertex 3.9968e-15 -8.87469e-31 0
      vertex 44 -9.76996e-15 25
      vertex 80 -1.77636e-14 0
    endloop
  endfacet
  facet normal -2.22045e-16 -1 0
    outer loop
      vertex 44 -9.76996e-15 300
      vertex 54 -1.19904e-14 325
      vertex 44 -9.76996e-15 325
    endloop
  endfacet
  facet normal -2.22045e-16 -1 -0
    outer loop
      vertex 54 -1.19904e-14 325
      vertex 44 -9.76996e-15 300
      vertex 54 -1.19904e-14 300
    endloop
  endfacet
  facet normal 2.22045e-16 1 -0
    outer loop
      vertex 54 -1.19904e-14 675
      vertex 44 -9.76996e-15 700
      vertex 54 -1.19904e-14 700
    endloop
  endfacet
  facet normal 2.22045e-16 1 0
    outer loop
      vertex 44 -9.76996e-15 700
      vertex 54 -1.19904e-14 675
      vertex 44 -9.76996e-15 675
    endloop
  endfacet
  facet normal 0 0 1
    outer loop
      vertex 1.9984e-14 45 700
      vertex 1.55431e-14 35 700
      vertex 1.95399e-14 35 700
    endloop
  endfacet
  facet normal -0 0 1
    outer loop
      vertex -18 80 700
      vertex 1.9984e-14 45 700
      vertex 3.55271e-14 80 700
    endloop
  endfacet
  facet normal 0 0 1
    outer loop
      vertex 1.9984e-14 45 700
      vertex -18 80 700
      vertex 1.55431e-14 35 700
    endloop
  endfacet
  facet normal 0 0 1
    outer loop
      vertex -18 -18 700
      vertex 1.55431e-14 35 700
      vertex -18 80 700
    endloop
  endfacet
  facet normal 0 0 1
    outer loop
      vertex 1.55431e-14 35 700
      vertex -18 -18 700
      vertex 0 0 700
    endloop
  endfacet
  facet normal 0 0 1
    outer loop
      vertex 0 0 700
      vertex -18 -18 700
      vertex -3.9968e-15 -18 700
    endloop
  endfacet
  facet normal 0 0 1
    outer loop
      vertex 2.39808e-14 45 700
      vertex 1.9984e-14 45 700
      vertex 1.95399e-14 35 700
    endloop
  endfacet
  facet normal 0 0 1
    outer loop
      vertex 54 -1.19904e-14 700
      vertex 80 -18 700
      vertex 80 -1.77636e-14 700
    endloop
  endfacet
  facet normal 0 0 1
    outer loop
      vertex 44 -9.76996e-15 700
      vertex 80 -18 700
      vertex 54 -1.19904e-14 700
    endloop
  endfacet
  facet normal -0 0 1
    outer loop
      vertex 18 -7.99361e-15 700
      vertex 44 -9.76996e-15 700
      vertex 18 -3.9968e-15 700
    endloop
  endfacet
  facet normal 0 0 1
    outer loop
      vertex -3.9968e-15 -18 700
      vertex 44 -9.76996e-15 700
      vertex 18 -7.99361e-15 700
    endloop
  endfacet
  facet normal 0 0 1
    outer loop
      vertex -3.9968e-15 -18 700
      vertex 18 -7.99361e-15 700
      vertex 0 0 700
    endloop
  endfacet
  facet normal 0 0 1
    outer loop
      vertex 44 -9.76996e-15 700
      vertex -3.9968e-15 -18 700
      vertex 80 -18 700
    endloop
  endfacet
  facet normal 0 -1 0
    outer loop
      vertex -3.9968e-15 -18 700
      vertex 44 -18 675
      vertex 80 -18 700
    endloop
  endfacet
  facet normal 0 -1 0
    outer loop
      vertex -3.9968e-15 -18 700
      vertex 44 -18 25
      vertex 44 -18 675
    endloop
  endfacet
  facet normal 0 -1 0
    outer loop
      vertex 80 -18 0
      vertex 44 -18 25
      vertex -3.9968e-15 -18 0
    endloop
  endfacet
  facet normal 0 -1 0
    outer loop
      vertex -3.9968e-15 -18 0
      vertex 44 -18 25
      vertex -3.9968e-15 -18 700
    endloop
  endfacet
  facet normal 0 -1 0
    outer loop
      vertex 54 -18 675
      vertex 80 -18 700
      vertex 44 -18 675
    endloop
  endfacet
  facet normal 0 -1 0
    outer loop
      vertex 54 -18 25
      vertex 80 -18 700
      vertex 54 -18 675
    endloop
  endfacet
  facet normal 0 -1 0
    outer loop
      vertex 54 -18 25
      vertex 80 -18 0
      vertex 80 -18 700
    endloop
  endfacet
  facet normal 0 -1 0
    outer loop
      vertex 44 -18 25
      vertex 80 -18 0
      vertex 54 -18 25
    endloop
  endfacet
  facet normal 1 0 0
    outer loop
      vertex 80 -1.77636e-14 700
      vertex 80 18 900
      vertex 80 -1.77636e-14 900
    endloop
  endfacet
  facet normal 1 0 0
    outer loop
      vertex 80 18 900
      vertex 80 -1.77636e-14 700
      vertex 80 18 300
    endloop
  endfacet
  facet normal 1 0 0
    outer loop
      vertex 80 -1.77636e-14 700
      vertex 80 -1.77636e-14 300
      vertex 80 18 300
    endloop
  endfacet
  facet normal 1 -0 0
    outer loop
      vertex 80 -18 700
      vertex 80 -1.77636e-14 300
      vertex 80 -1.77636e-14 700
    endloop
  endfacet
  facet normal 1 0 0
    outer loop
      vertex 80 -18 0
      vertex 80 -1.77636e-14 300
      vertex 80 -18 700
    endloop
  endfacet
  facet normal 1 0 0
    outer loop
      vertex 80 -1.77636e-14 300
      vertex 80 -18 0
      vertex 80 -1.77636e-14 0
    endloop
  endfacet
  facet normal 0 0 -1
    outer loop
      vertex 80 -18 0
      vertex 3.9968e-15 -8.87469e-31 0
      vertex 80 -1.77636e-14 0
    endloop
  endfacet
  facet normal 0 -0 -1
    outer loop
      vertex 3.9968e-15 -8.87469e-31 0
      vertex 80 -18 0
      vertex -3.9968e-15 -18 0
    endloop
  endfacet
  facet normal 0 0 -1
    outer loop
      vertex -18 -18 0
      vertex 3.9968e-15 -8.87469e-31 0
      vertex -3.9968e-15 -18 0
    endloop
  endfacet
  facet normal 0 0 -1
    outer loop
      vertex -18 80 0
      vertex 3.9968e-15 -8.87469e-31 0
      vertex -18 -18 0
    endloop
  endfacet
  facet normal 0 0 -1
    outer loop
      vertex 3.9968e-15 -8.87469e-31 0
      vertex -18 80 0
      vertex 3.95239e-14 80 0
    endloop
  endfacet
  facet normal 0 0 -1
    outer loop
      vertex 44 -18 675
      vertex 54 -1.19904e-14 675
      vertex 54 -18 675
    endloop
  endfacet
  facet normal -0 0 -1
    outer loop
      vertex 54 -1.19904e-14 675
      vertex 44 -18 675
      vertex 44 -9.76996e-15 675
    endloop
  endfacet
  facet normal 0 0 1
    outer loop
      vertex 44 -9.76996e-15 25
      vertex 54 -18 25
      vertex 54 -1.19904e-14 25
    endloop
  endfacet
  facet normal 0 0 1
    outer loop
      vertex 54 -18 25
      vertex 44 -9.76996e-15 25
      vertex 44 -18 25
    endloop
  endfacet
  facet normal 1 0 0
    outer loop
      vertex 44 -9.76996e-15 700
      vertex 44 18 875
      vertex 44 -9.76996e-15 875
    endloop
  endfacet
  facet normal 1 0 0
    outer loop
      vertex 44 -9.76996e-15 675
      vertex 44 18 875
      vertex 44 -9.76996e-15 700
    endloop
  endfacet
  facet normal 1 0 0
    outer loop
      vertex 44 18 875
      vertex 44 -9.76996e-15 675
      vertex 44 18 325
    endloop
  endfacet
  facet normal 1 0 0
    outer loop
      vertex 44 -9.76996e-15 675
      vertex 44 -9.76996e-15 325
      vertex 44 18 325
    endloop
  endfacet
  facet normal 1 -0 0
    outer loop
      vertex 44 -18 675
      vertex 44 -9.76996e-15 325
      vertex 44 -9.76996e-15 675
    endloop
  endfacet
  facet normal 1 0 0
    outer loop
      vertex 44 -18 25
      vertex 44 -9.76996e-15 325
      vertex 44 -18 675
    endloop
  endfacet
  facet normal 1 0 0
    outer loop
      vertex 44 -9.76996e-15 325
      vertex 44 -18 25
      vertex 44 -9.76996e-15 300
    endloop
  endfacet
  facet normal 1 0 0
    outer loop
      vertex 44 -9.76996e-15 300
      vertex 44 -18 25
      vertex 44 -9.76996e-15 25
    endloop
  endfacet
  facet normal -1 0 0
    outer loop
      vertex 54 -18 25
      vertex 54 -1.19904e-14 300
      vertex 54 -1.19904e-14 25
    endloop
  endfacet
  facet normal -1 -0 0
    outer loop
      vertex 54 -1.19904e-14 300
      vertex 54 -18 25
      vertex 54 -1.19904e-14 325
    endloop
  endfacet
  facet normal -1 0 0
    outer loop
      vertex 54 -18 675
      vertex 54 -1.19904e-14 325
      vertex 54 -18 25
    endloop
  endfacet
  facet normal -1 0 0
    outer loop
      vertex 54 -1.19904e-14 325
      vertex 54 -18 675
      vertex 54 -1.19904e-14 675
    endloop
  endfacet
  facet normal -1 0 0
    outer loop
      vertex 54 -1.19904e-14 675
      vertex 54 18 325
      vertex 54 -1.19904e-14 325
    endloop
  endfacet
  facet normal -1 0 0
    outer loop
      vertex 54 18 325
      vertex 54 -1.19904e-14 675
      vertex 54 18 875
    endloop
  endfacet
  facet normal -1 0 0
    outer loop
      vertex 54 -1.19904e-14 700
      vertex 54 18 875
      vertex 54 -1.19904e-14 675
    endloop
  endfacet
  facet normal -1 -0 0
    outer loop
      vertex 54 18 875
      vertex 54 -1.19904e-14 700
      vertex 54 -1.19904e-14 875
    endloop
  endfacet
  facet normal -1 0 0
    outer loop
      vertex -18 80 0
      vertex -18 45 25
      vertex -18 80 700
    endloop
  endfacet
  facet normal -1 0 0
    outer loop
      vertex -18 80 0
      vertex -18 35 25
      vertex -18 45 25
    endloop
  endfacet
  facet normal -1 -0 0
    outer loop
      vertex -18 35 25
      vertex -18 -18 0
      vertex -18 35 675
    endloop
  endfacet
  facet normal -1 0 0
    outer loop
      vertex -18 -18 0
      vertex -18 35 25
      vertex -18 80 0
    endloop
  endfacet
  facet normal -1 0 0
    outer loop
      vertex -18 45 675
      vertex -18 80 700
      vertex -18 45 25
    endloop
  endfacet
  facet normal -1 0 0
    outer loop
      vertex -18 35 675
      vertex -18 80 700
      vertex -18 45 675
    endloop
  endfacet
  facet normal -1 0 0
    outer loop
      vertex -18 35 675
      vertex -18 -18 700
      vertex -18 80 700
    endloop
  endfacet
  facet normal -1 0 0
    outer loop
      vertex -18 -18 700
      vertex -18 35 675
      vertex -18 -18 0
    endloop
  endfacet
  facet normal 1 -4.44089e-16 0
    outer loop
      vertex 1.95399e-14 35 300
      vertex 3.9968e-15 -8.87469e-31 300
      vertex 1.95399e-14 35 25
    endloop
  endfacet
  facet normal 1 -4.44089e-16 0
    outer loop
      vertex 2.39808e-14 45 25
      vertex 3.95239e-14 80 300
      vertex 2.39808e-14 45 300
    endloop
  endfacet
  facet normal 1 -4.44089e-16 0
    outer loop
      vertex 3.95239e-14 80 300
      vertex 2.39808e-14 45 25
      vertex 3.95239e-14 80 0
    endloop
  endfacet
  facet normal 1 -4.44089e-16 0
    outer loop
      vertex 1.95399e-14 35 25
      vertex 3.95239e-14 80 0
      vertex 2.39808e-14 45 25
    endloop
  endfacet
  facet normal 1 -4.44089e-16 0
    outer loop
      vertex 1.95399e-14 35 25
      vertex 3.9968e-15 -8.87469e-31 0
      vertex 3.95239e-14 80 0
    endloop
  endfacet
  facet normal 1 -4.44089e-16 0
    outer loop
      vertex 3.9968e-15 -8.87469e-31 0
      vertex 1.95399e-14 35 25
      vertex 3.9968e-15 -8.87469e-31 300
    endloop
  endfacet
  facet normal 1 -4.44089e-16 0
    outer loop
      vertex 1.95399e-14 35 700
      vertex 2.39808e-14 45 675
      vertex 2.39808e-14 45 700
    endloop
  endfacet
  facet normal 1 -4.44089e-16 0
    outer loop
      vertex 2.39808e-14 45 675
      vertex 1.95399e-14 35 700
      vertex 1.95399e-14 35 675
    endloop
  endfacet
  facet normal 0 0 0
    outer loop
      vertex 2.39808e-14 45 700
      vertex 2.39808e-14 45 675
      vertex 2.39808e-14 45 325
    endloop
  endfacet
  facet normal 0 1 0
    outer loop
      vertex 3.95239e-14 80 300
      vertex 3.95239e-14 80 0
      vertex 3.55271e-14 80 300
    endloop
  endfacet
  facet normal 0 1 -0
    outer loop
      vertex 3.55271e-14 80 300
      vertex -18 80 700
      vertex 3.55271e-14 80 700
    endloop
  endfacet
  facet normal 0 1 0
    outer loop
      vertex -18 80 0
      vertex 3.55271e-14 80 300
      vertex 3.95239e-14 80 0
    endloop
  endfacet
  facet normal 0 1 0
    outer loop
      vertex 3.55271e-14 80 300
      vertex -18 80 0
      vertex -18 80 700
    endloop
  endfacet
  facet normal 0 -1 0
    outer loop
      vertex -18 -18 0
      vertex -3.9968e-15 -18 700
      vertex -18 -18 700
    endloop
  endfacet
  facet normal 0 -1 -0
    outer loop
      vertex -3.9968e-15 -18 700
      vertex -18 -18 0
      vertex -3.9968e-15 -18 0
    endloop
  endfacet
  facet normal 0 0 -1
    outer loop
      vertex 1.55431e-14 35 675
      vertex 2.39808e-14 45 675
      vertex 1.95399e-14 35 675
    endloop
  endfacet
  facet normal 0 0 -1
    outer loop
      vertex -18 35 675
      vertex 2.39808e-14 45 675
      vertex 1.55431e-14 35 675
    endloop
  endfacet
  facet normal -0 0 -1
    outer loop
      vertex 2.39808e-14 45 675
      vertex -18 35 675
      vertex -18 45 675
    endloop
  endfacet
  facet normal 0 -1 0
    outer loop
      vertex -18 45 675
      vertex 1.9984e-14 45 325
      vertex 2.39808e-14 45 675
    endloop
  endfacet
  facet normal 0 -1 0
    outer loop
      vertex -18 45 25
      vertex 1.9984e-14 45 325
      vertex -18 45 675
    endloop
  endfacet
  facet normal 0 -1 -0
    outer loop
      vertex 1.9984e-14 45 325
      vertex -18 45 25
      vertex 1.9984e-14 45 300
    endloop
  endfacet
  facet normal 0 -1 0
    outer loop
      vertex 2.39808e-14 45 25
      vertex 1.9984e-14 45 300
      vertex -18 45 25
    endloop
  endfacet
  facet normal 0 -1 0
    outer loop
      vertex 1.9984e-14 45 300
      vertex 2.39808e-14 45 25
      vertex 2.39808e-14 45 300
    endloop
  endfacet
  facet normal 0 -1 -0
    outer loop
      vertex 2.39808e-14 45 675
      vertex 1.9984e-14 45 325
      vertex 2.39808e-14 45 325
    endloop
  endfacet
  facet normal -0 0 1
    outer loop
      vertex -18 45 25
      vertex 1.95399e-14 35 25
      vertex 2.39808e-14 45 25
    endloop
  endfacet
  facet normal 0 0 1
    outer loop
      vertex 1.95399e-14 35 25
      vertex -18 45 25
      vertex -18 35 25
    endloop
  endfacet
  facet normal 0 1 0
    outer loop
      vertex 1.95399e-14 35 300
      vertex 1.95399e-14 35 25
      vertex 1.55431e-14 35 300
    endloop
  endfacet
  facet normal 0 1 -0
    outer loop
      vertex 1.55431e-14 35 300
      vertex -18 35 675
      vertex 1.55431e-14 35 675
    endloop
  endfacet
  facet normal 0 1 0
    outer loop
      vertex -18 35 25
      vertex 1.55431e-14 35 300
      vertex 1.95399e-14 35 25
    endloop
  endfacet
  facet normal 0 1 0
    outer loop
      vertex 1.55431e-14 35 300
      vertex -18 35 25
      vertex -18 35 675
    endloop
  endfacet
  facet normal -1 4.44089e-16 0
    outer loop
      vertex 1.55431e-14 35 700
      vertex 0 0 700
      vertex 1.55431e-14 35 875
    endloop
  endfacet
  facet normal -1 4.44089e-16 0
    outer loop
      vertex 1.9984e-14 45 875
      vertex 3.55271e-14 80 700
      vertex 1.9984e-14 45 700
    endloop
  endfacet
  facet normal -1 4.44089e-16 0
    outer loop
      vertex 3.55271e-14 80 700
      vertex 1.9984e-14 45 875
      vertex 3.55271e-14 80 900
    endloop
  endfacet
  facet normal -1 4.44089e-16 0
    outer loop
      vertex 1.55431e-14 35 875
      vertex 3.55271e-14 80 900
      vertex 1.9984e-14 45 875
    endloop
  endfacet
  facet normal -1 4.44089e-16 0
    outer loop
      vertex 1.55431e-14 35 875
      vertex 0 0 900
      vertex 3.55271e-14 80 900
    endloop
  endfacet
  facet normal -1 4.44089e-16 0
    outer loop
      vertex 0 0 900
      vertex 1.55431e-14 35 875
      vertex 0 0 700
    endloop
  endfacet
  facet normal 0 0 0
    outer loop
      vertex 3.55271e-14 80 900
      vertex 3.55271e-14 80 300
      vertex 3.55271e-14 80 700
    endloop
  endfacet
  facet normal -1 4.44089e-16 0
    outer loop
      vertex 1.55431e-14 35 300
      vertex 1.9984e-14 45 325
      vertex 1.9984e-14 45 300
    endloop
  endfacet
  facet normal -1 4.44089e-16 0
    outer loop
      vertex 1.9984e-14 45 325
      vertex 1.55431e-14 35 300
      vertex 1.55431e-14 35 325
    endloop
  endfacet
  facet normal 0 0 0
    outer loop
      vertex 1.55431e-14 35 325
      vertex 1.55431e-14 35 300
      vertex 1.55431e-14 35 675
    endloop
  endfacet
  facet normal -0 0 1
    outer loop
      vertex 3.55271e-14 80 900
      vertex 18 18 900
      vertex 18 80 900
    endloop
  endfacet
  facet normal 0 0 1
    outer loop
      vertex 0 0 900
      vertex 18 18 900
      vertex 3.55271e-14 80 900
    endloop
  endfacet
  facet normal 0 0 1
    outer loop
      vertex 18 18 900
      vertex 0 0 900
      vertex 18 -3.9968e-15 900
    endloop
  endfacet
  facet normal 0 0 1
    outer loop
      vertex 18 -3.9968e-15 900
      vertex 0 0 900
      vertex 18 -7.99361e-15 900
    endloop
  endfacet
  facet normal -0 0 1
    outer loop
      vertex 18 18 900
      vertex 80 -1.77636e-14 900
      vertex 80 18 900
    endloop
  endfacet
  facet normal 0 0 1
    outer loop
      vertex 80 -1.77636e-14 900
      vertex 18 18 900
      vertex 18 -3.9968e-15 900
    endloop
  endfacet
  facet normal 1 -0 0
    outer loop
      vertex 18 -7.99361e-15 900
      vertex 18 -3.9968e-15 700
      vertex 18 -3.9968e-15 900
    endloop
  endfacet
  facet normal 1 0 0
    outer loop
      vertex 18 -3.9968e-15 700
      vertex 18 -7.99361e-15 900
      vertex 18 -7.99361e-15 700
    endloop
  endfacet
  facet normal 1 0 0
    outer loop
      vertex 18 80 900
      vertex 18 45 875
      vertex 18 80 300
    endloop
  endfacet
  facet normal 1 -0 0
    outer loop
      vertex 18 18 900
      vertex 18 45 875
      vertex 18 80 900
    endloop
  endfacet
  facet normal 1 0 0
    outer loop
      vertex 18 35 875
      vertex 18 18 900
      vertex 18 35 325
    endloop
  endfacet
  facet normal 1 0 0
    outer loop
      vertex 18 45 875
      vertex 18 18 900
      vertex 18 35 875
    endloop
  endfacet
  facet normal 1 -0 0
    outer loop
      vertex 18 45 325
      vertex 18 80 300
      vertex 18 45 875
    endloop
  endfacet
  facet normal 1 0 0
    outer loop
      vertex 18 18 300
      vertex 18 45 325
      vertex 18 35 325
    endloop
  endfacet
  facet normal 1 0 0
    outer loop
      vertex 18 45 325
      vertex 18 18 300
      vertex 18 80 300
    endloop
  endfacet
  facet normal 1 0 0
    outer loop
      vertex 18 18 300
      vertex 18 35 325
      vertex 18 18 900
    endloop
  endfacet
  facet normal 0 0 -1
    outer loop
      vertex 54 -1.19904e-14 300
      vertex 80 18 300
      vertex 80 -1.77636e-14 300
    endloop
  endfacet
  facet normal 0 0 -1
    outer loop
      vertex 44 -9.76996e-15 300
      vertex 80 18 300
      vertex 54 -1.19904e-14 300
    endloop
  endfacet
  facet normal 0 0 -1
    outer loop
      vertex 44 -9.76996e-15 300
      vertex 18 18 300
      vertex 80 18 300
    endloop
  endfacet
  facet normal 0 0 -1
    outer loop
      vertex 2.39808e-14 45 300
      vertex 18 80 300
      vertex 18 18 300
    endloop
  endfacet
  facet normal -0 0 -1
    outer loop
      vertex 18 80 300
      vertex 2.39808e-14 45 300
      vertex 3.95239e-14 80 300
    endloop
  endfacet
  facet normal 0 0 -1
    outer loop
      vertex 1.95399e-14 35 300
      vertex 2.39808e-14 45 300
      vertex 18 18 300
    endloop
  endfacet
  facet normal -0 0 -1
    outer loop
      vertex 2.39808e-14 45 300
      vertex 1.95399e-14 35 300
      vertex 1.9984e-14 45 300
    endloop
  endfacet
  facet normal -0 0 -1
    outer loop
      vertex 18 18 300
      vertex 3.9968e-15 -8.87469e-31 300
      vertex 1.95399e-14 35 300
    endloop
  endfacet
  facet normal 0 0 -1
    outer loop
      vertex 3.9968e-15 -8.87469e-31 300
      vertex 18 18 300
      vertex 44 -9.76996e-15 300
    endloop
  endfacet
  facet normal 0 0 -1
    outer loop
      vertex 1.9984e-14 45 300
      vertex 1.95399e-14 35 300
      vertex 1.55431e-14 35 300
    endloop
  endfacet
  facet normal 0 0 0
    outer loop
      vertex 3.95239e-14 80 300
      vertex 3.55271e-14 80 300
      vertex 18 80 300
    endloop
  endfacet
  facet normal -4.44089e-16 -1 0
    outer loop
      vertex 0 0 700
      vertex 18 -7.99361e-15 900
      vertex 0 0 900
    endloop
  endfacet
  facet normal -4.44089e-16 -1 -0
    outer loop
      vertex 18 -7.99361e-15 900
      vertex 0 0 700
      vertex 18 -7.99361e-15 700
    endloop
  endfacet
  facet normal 0 1 -0
    outer loop
      vertex 18 80 300
      vertex 3.55271e-14 80 900
      vertex 18 80 900
    endloop
  endfacet
  facet normal 0 1 0
    outer loop
      vertex 3.55271e-14 80 900
      vertex 18 80 300
      vertex 3.55271e-14 80 300
    endloop
  endfacet
  facet normal 0 0 -1
    outer loop
      vertex 18 35 875
      vertex 1.9984e-14 45 875
      vertex 18 45 875
    endloop
  endfacet
  facet normal 0 -0 -1
    outer loop
      vertex 1.9984e-14 45 875
      vertex 18 35 875
      vertex 1.55431e-14 35 875
    endloop
  endfacet
  facet normal -0 0 1
    outer loop
      vertex 2.39808e-14 45 325
      vertex 18 35 325
      vertex 18 45 325
    endloop
  endfacet
  facet normal 0 0 1
    outer loop
      vertex 1.55431e-14 35 325
      vertex 2.39808e-14 45 325
      vertex 1.9984e-14 45 325
    endloop
  endfacet
  facet normal 0 0 1
    outer loop
      vertex 2.39808e-14 45 325
      vertex 1.55431e-14 35 325
      vertex 18 35 325
    endloop
  endfacet
  facet normal 0 1 0
    outer loop
      vertex 18 35 875
      vertex 1.95399e-14 35 700
      vertex 1.55431e-14 35 875
    endloop
  endfacet
  facet normal 0 1 0
    outer loop
      vertex 18 35 875
      vertex 1.95399e-14 35 675
      vertex 1.95399e-14 35 700
    endloop
  endfacet
  facet normal 0 1 -0
    outer loop
      vertex 18 35 325
      vertex 1.95399e-14 35 675
      vertex 18 35 875
    endloop
  endfacet
  facet normal 0 1 0
    outer loop
      vertex 1.55431e-14 35 325
      vertex 1.95399e-14 35 675
      vertex 18 35 325
    endloop
  endfacet
  facet normal 0 1 0
    outer loop
      vertex 1.95399e-14 35 675
      vertex 1.55431e-14 35 325
      vertex 1.55431e-14 35 675
    endloop
  endfacet
  facet normal 0 1 0
    outer loop
      vertex 1.55431e-14 35 875
      vertex 1.95399e-14 35 700
      vertex 1.55431e-14 35 700
    endloop
  endfacet
  facet normal 0 -1 0
    outer loop
      vertex 2.39808e-14 45 700
      vertex 1.9984e-14 45 875
      vertex 1.9984e-14 45 700
    endloop
  endfacet
  facet normal 0 -1 0
    outer loop
      vertex 1.9984e-14 45 875
      vertex 2.39808e-14 45 700
      vertex 18 45 875
    endloop
  endfacet
  facet normal 0 -1 0
    outer loop
      vertex 18 45 325
      vertex 2.39808e-14 45 700
      vertex 2.39808e-14 45 325
    endloop
  endfacet
  facet normal 0 -1 0
    outer loop
      vertex 2.39808e-14 45 700
      vertex 18 45 325
      vertex 18 45 875
    endloop
  endfacet
  facet normal 0 1 0
    outer loop
      vertex 80 18 900
      vertex 54 18 875
      vertex 18 18 900
    endloop
  endfacet
  facet normal 0 1 0
    outer loop
      vertex 80 18 900
      vertex 54 18 325
      vertex 54 18 875
    endloop
  endfacet
  facet normal 0 1 0
    outer loop
      vertex 54 18 325
      vertex 80 18 300
      vertex 44 18 325
    endloop
  endfacet
  facet normal 0 1 -0
    outer loop
      vertex 80 18 300
      vertex 54 18 325
      vertex 80 18 900
    endloop
  endfacet
  facet normal 0 1 -0
    outer loop
      vertex 44 18 875
      vertex 18 18 900
      vertex 54 18 875
    endloop
  endfacet
  facet normal 0 1 -0
    outer loop
      vertex 44 18 325
      vertex 18 18 900
      vertex 44 18 875
    endloop
  endfacet
  facet normal 0 1 0
    outer loop
      vertex 44 18 325
      vertex 18 18 300
      vertex 18 18 900
    endloop
  endfacet
  facet normal 0 1 0
    outer loop
      vertex 18 18 300
      vertex 44 18 325
      vertex 80 18 300
    endloop
  endfacet
  facet normal 0 0 -1
    outer loop
      vertex 44 -9.76996e-15 875
      vertex 54 18 875
      vertex 54 -1.19904e-14 875
    endloop
  endfacet
  facet normal -0 0 -1
    outer loop
      vertex 54 18 875
      vertex 44 -9.76996e-15 875
      vertex 44 18 875
    endloop
  endfacet
  facet normal -0 0 1
    outer loop
      vertex 44 18 325
      vertex 54 -1.19904e-14 325
      vertex 54 18 325
    endloop
  endfacet
  facet normal 0 0 1
    outer loop
      vertex 54 -1.19904e-14 325
      vertex 44 18 325
      vertex 44 -9.76996e-15 325
    endloop
  endfacet
endsolid OpenSCAD_Model
