solid OpenSCAD_Model
  facet normal 2.22045e-16 1 0
    outer loop
      vertex 80 -1.77636e-14 100
      vertex 54 -1.19904e-14 50
      vertex 54 -1.19904e-14 100
    endloop
  endfacet
  facet normal 2.22045e-16 1 0
    outer loop
      vertex 54 -1.19904e-14 50
      vertex 80 -1.77636e-14 0
      vertex 44 -9.76996e-15 50
    endloop
  endfacet
  facet normal 2.22045e-16 1 -0
    outer loop
      vertex 80 -1.77636e-14 0
      vertex 54 -1.19904e-14 50
      vertex 80 -1.77636e-14 100
    endloop
  endfacet
  facet normal 2.22045e-16 1 -0
    outer loop
      vertex 44 -9.76996e-15 50
      vertex 3.9968e-15 -8.87469e-31 100
      vertex 44 -9.76996e-15 100
    endloop
  endfacet
  facet normal 2.22045e-16 1 0
    outer loop
      vertex 3.9968e-15 -8.87469e-31 0
      vertex 44 -9.76996e-15 50
      vertex 80 -1.77636e-14 0
    endloop
  endfacet
  facet normal 2.22045e-16 1 0
    outer loop
      vertex 44 -9.76996e-15 50
      vertex 3.9968e-15 -8.87469e-31 0
      vertex 3.9968e-15 -8.87469e-31 100
    endloop
  endfacet
  facet normal -2.22045e-16 -1 0
    outer loop
      vertex 44 -9.76996e-15 100
      vertex 54 -1.19904e-14 150
      vertex 44 -9.76996e-15 150
    endloop
  endfacet
  facet normal -2.22045e-16 -1 -0
    outer loop
      vertex 54 -1.19904e-14 150
      vertex 44 -9.76996e-15 100
      vertex 54 -1.19904e-14 100
    endloop
  endfacet
  facet normal 0 0 -1
    outer loop
      vertex 3.55271e-14 80 700
      vertex 18 1320 700
      vertex 18 80 700
    endloop
  endfacet
  facet normal 0 0 -1
    outer loop
      vertex -18 1320 700
      vertex 3.55271e-14 80 700
      vertex -18 80 700
    endloop
  endfacet
  facet normal 0 0 -1
    outer loop
      vertex 3.55271e-14 80 700
      vertex -18 1320 700
      vertex 18 1320 700
    endloop
  endfacet
  facet normal -0 0 -1
    outer loop
      vertex 720 0 700
      vertex 80 -18 700
      vertex 80 0 700
    endloop
  endfacet
  facet normal 0 0 -1
    outer loop
      vertex 80 1400 700
      vertex 720 1382 700
      vertex 80 1382 700
    endloop
  endfacet
  facet normal 0 0 -1
    outer loop
      vertex 720 18 700
      vertex 782 80 700
      vertex 782 18 700
    endloop
  endfacet
  facet normal 0 0 -1
    outer loop
      vertex 80 18 700
      vertex 782 80 700
      vertex 720 18 700
    endloop
  endfacet
  facet normal -0 0 -1
    outer loop
      vertex 782 80 700
      vertex 80 18 700
      vertex 782 1320 700
    endloop
  endfacet
  facet normal -0 0 -1
    outer loop
      vertex 782 1320 700
      vertex 80 18 700
      vertex 36 1364 700
    endloop
  endfacet
  facet normal 0 0 -1
    outer loop
      vertex 36 1364 700
      vertex 80 18 700
      vertex 36 18 700
    endloop
  endfacet
  facet normal 0 0 -1
    outer loop
      vertex 782 1320 700
      vertex 36 1364 700
      vertex 782 1364 700
    endloop
  endfacet
  facet normal 0 0 -1
    outer loop
      vertex 818 80 700
      vertex 800 1320 700
      vertex 818 1320 700
    endloop
  endfacet
  facet normal 0 0 -1
    outer loop
      vertex 782 80 700
      vertex 800 1320 700
      vertex 818 80 700
    endloop
  endfacet
  facet normal -0 0 -1
    outer loop
      vertex 800 1320 700
      vertex 782 80 700
      vertex 782 1320 700
    endloop
  endfacet
  facet normal 0 0 -1
    outer loop
      vertex 818 0 700
      vertex 850 -50 700
      vertex 818 -18 700
    endloop
  endfacet
  facet normal 0 0 -1
    outer loop
      vertex 850 -50 700
      vertex 720 -18 700
      vertex 818 -18 700
    endloop
  endfacet
  facet normal 0 0 -1
    outer loop
      vertex 720 -18 700
      vertex 80 -18 700
      vertex 720 0 700
    endloop
  endfacet
  facet normal 0 0 -1
    outer loop
      vertex 850 -50 700
      vertex 80 -18 700
      vertex 720 -18 700
    endloop
  endfacet
  facet normal 0 0 -1
    outer loop
      vertex -50 -50 700
      vertex 80 -18 700
      vertex 850 -50 700
    endloop
  endfacet
  facet normal -0 0 -1
    outer loop
      vertex 80 -18 700
      vertex -50 -50 700
      vertex -3.9968e-15 -18 700
    endloop
  endfacet
  facet normal 0 0 -1
    outer loop
      vertex -50 -50 700
      vertex -18 80 700
      vertex -18 -18 700
    endloop
  endfacet
  facet normal -0 0 -1
    outer loop
      vertex -18 80 700
      vertex -50 -50 700
      vertex -18 1320 700
    endloop
  endfacet
  facet normal 0 0 -1
    outer loop
      vertex -50 1450 700
      vertex -18 1320 700
      vertex -50 -50 700
    endloop
  endfacet
  facet normal 0 0 -1
    outer loop
      vertex -18 1320 700
      vertex -50 1450 700
      vertex -18 1400 700
    endloop
  endfacet
  facet normal -0 0 -1
    outer loop
      vertex -3.9968e-15 -18 700
      vertex -50 -50 700
      vertex -18 -18 700
    endloop
  endfacet
  facet normal 0 0 -1
    outer loop
      vertex 818 80 700
      vertex 850 -50 700
      vertex 818 0 700
    endloop
  endfacet
  facet normal 0 0 0
    outer loop
      vertex 818 80 700
      vertex 818 0 700
      vertex 818 8.87469e-31 700
    endloop
  endfacet
  facet normal 0 0 -1
    outer loop
      vertex 850 -50 700
      vertex 818 80 700
      vertex 850 1450 700
    endloop
  endfacet
  facet normal 0 0 -1
    outer loop
      vertex 818 1320 700
      vertex 850 1450 700
      vertex 818 80 700
    endloop
  endfacet
  facet normal 0 0 -1
    outer loop
      vertex 818 1418 700
      vertex 850 1450 700
      vertex 818 1320 700
    endloop
  endfacet
  facet normal 0 0 -1
    outer loop
      vertex 800 1418 700
      vertex 850 1450 700
      vertex 818 1418 700
    endloop
  endfacet
  facet normal 0 0 -1
    outer loop
      vertex 720 1418 700
      vertex 850 1450 700
      vertex 800 1418 700
    endloop
  endfacet
  facet normal 0 0 -1
    outer loop
      vertex 720 1382 700
      vertex 80 1400 700
      vertex 720 1418 700
    endloop
  endfacet
  facet normal 0 0 -1
    outer loop
      vertex 80 1418 700
      vertex 720 1418 700
      vertex 80 1400 700
    endloop
  endfacet
  facet normal 0 0 -1
    outer loop
      vertex 720 1418 700
      vertex 80 1418 700
      vertex 850 1450 700
    endloop
  endfacet
  facet normal 0 0 -1
    outer loop
      vertex -50 1450 700
      vertex 80 1418 700
      vertex -18 1418 700
    endloop
  endfacet
  facet normal 0 0 -1
    outer loop
      vertex 80 1418 700
      vertex -50 1450 700
      vertex 850 1450 700
    endloop
  endfacet
  facet normal 0 0 -1
    outer loop
      vertex -18 1400 700
      vertex -50 1450 700
      vertex -18 1418 700
    endloop
  endfacet
  facet normal 0 0 0
    outer loop
      vertex 720 1382 700
      vertex 782 1382 700
      vertex 36 1382 700
    endloop
  endfacet
  facet normal 0 0 0
    outer loop
      vertex 36 18 700
      vertex 80 18 700
      vertex 18 18 700
    endloop
  endfacet
  facet normal 0 0 0
    outer loop
      vertex 36 1382 700
      vertex 80 1382 700
      vertex 720 1382 700
    endloop
  endfacet
  facet normal 0 0 0
    outer loop
      vertex 18 80 700
      vertex 18 1320 700
      vertex 18 1364 700
    endloop
  endfacet
  facet normal 0 -1 0
    outer loop
      vertex -3.9968e-15 -18 700
      vertex 44 -18 650
      vertex 80 -18 700
    endloop
  endfacet
  facet normal 0 -1 0
    outer loop
      vertex -3.9968e-15 -18 700
      vertex 44 -18 50
      vertex 44 -18 650
    endloop
  endfacet
  facet normal 0 -1 0
    outer loop
      vertex 80 -18 0
      vertex 44 -18 50
      vertex -3.9968e-15 -18 0
    endloop
  endfacet
  facet normal 0 -1 0
    outer loop
      vertex -3.9968e-15 -18 0
      vertex 44 -18 50
      vertex -3.9968e-15 -18 700
    endloop
  endfacet
  facet normal 0 -1 0
    outer loop
      vertex 54 -18 650
      vertex 80 -18 700
      vertex 44 -18 650
    endloop
  endfacet
  facet normal 0 -1 0
    outer loop
      vertex 54 -18 50
      vertex 80 -18 700
      vertex 54 -18 650
    endloop
  endfacet
  facet normal 0 -1 0
    outer loop
      vertex 54 -18 50
      vertex 80 -18 0
      vertex 80 -18 700
    endloop
  endfacet
  facet normal 0 -1 0
    outer loop
      vertex 44 -18 50
      vertex 80 -18 0
      vertex 54 -18 50
    endloop
  endfacet
  facet normal 1 -0 0
    outer loop
      vertex 80 -18 700
      vertex 80 0 650
      vertex 80 0 700
    endloop
  endfacet
  facet normal 1 0 0
    outer loop
      vertex 80 0 650
      vertex 80 -18 700
      vertex 80 -1.77636e-14 100
    endloop
  endfacet
  facet normal 1 0 0
    outer loop
      vertex 80 -18 0
      vertex 80 -1.77636e-14 100
      vertex 80 -18 700
    endloop
  endfacet
  facet normal 1 0 0
    outer loop
      vertex 80 -1.77636e-14 100
      vertex 80 -18 0
      vertex 80 -1.77636e-14 0
    endloop
  endfacet
  facet normal 1 -0 0
    outer loop
      vertex 80 0 650
      vertex 80 18 100
      vertex 80 18 650
    endloop
  endfacet
  facet normal 1 0 0
    outer loop
      vertex 80 18 100
      vertex 80 0 650
      vertex 80 -1.77636e-14 100
    endloop
  endfacet
  facet normal 0 0 0
    outer loop
      vertex 80 18 650
      vertex 80 18 100
      vertex 80 18 700
    endloop
  endfacet
  facet normal 0 0 -1
    outer loop
      vertex 80 -18 0
      vertex 3.9968e-15 -8.87469e-31 0
      vertex 80 -1.77636e-14 0
    endloop
  endfacet
  facet normal 0 -0 -1
    outer loop
      vertex 3.9968e-15 -8.87469e-31 0
      vertex 80 -18 0
      vertex -3.9968e-15 -18 0
    endloop
  endfacet
  facet normal 0 0 -1
    outer loop
      vertex -18 -18 0
      vertex 3.9968e-15 -8.87469e-31 0
      vertex -3.9968e-15 -18 0
    endloop
  endfacet
  facet normal 0 0 -1
    outer loop
      vertex -18 80 0
      vertex 3.9968e-15 -8.87469e-31 0
      vertex -18 -18 0
    endloop
  endfacet
  facet normal 0 0 -1
    outer loop
      vertex 3.9968e-15 -8.87469e-31 0
      vertex -18 80 0
      vertex 3.95239e-14 80 0
    endloop
  endfacet
  facet normal 0 0 -1
    outer loop
      vertex 755 1.39888e-14 650
      vertex 765 7.77156e-15 650
      vertex 765 0 650
    endloop
  endfacet
  facet normal 0 0 -1
    outer loop
      vertex 755 1.39888e-14 650
      vertex 765 0 650
      vertex 755 0 650
    endloop
  endfacet
  facet normal 0 0 -1
    outer loop
      vertex 765 7.77156e-15 650
      vertex 755 1.39888e-14 650
      vertex 765 18 650
    endloop
  endfacet
  facet normal -0 0 -1
    outer loop
      vertex 765 18 650
      vertex 755 1.39888e-14 650
      vertex 755 18 650
    endloop
  endfacet
  facet normal 0 0 -1
    outer loop
      vertex 755 -18 650
      vertex 765 0 650
      vertex 765 -18 650
    endloop
  endfacet
  facet normal -0 0 -1
    outer loop
      vertex 765 0 650
      vertex 755 -18 650
      vertex 755 0 650
    endloop
  endfacet
  facet normal 0 0 -1
    outer loop
      vertex 44 -18 650
      vertex 54 0 650
      vertex 54 -18 650
    endloop
  endfacet
  facet normal -0 0 -1
    outer loop
      vertex 54 0 650
      vertex 44 -18 650
      vertex 44 0 650
    endloop
  endfacet
  facet normal 0 0 -1
    outer loop
      vertex 44 0 650
      vertex 54 18 650
      vertex 54 0 650
    endloop
  endfacet
  facet normal -0 0 -1
    outer loop
      vertex 54 18 650
      vertex 44 0 650
      vertex 44 18 650
    endloop
  endfacet
  facet normal 0 0 -1
    outer loop
      vertex 80 0 650
      vertex 720 1.77636e-14 650
      vertex 720 0 650
    endloop
  endfacet
  facet normal -0 0 -1
    outer loop
      vertex 720 1.77636e-14 650
      vertex 80 0 650
      vertex 720 18 650
    endloop
  endfacet
  facet normal -0 0 -1
    outer loop
      vertex 720 18 650
      vertex 80 0 650
      vertex 80 18 650
    endloop
  endfacet
  facet normal 0 0 1
    outer loop
      vertex 44 -9.76996e-15 50
      vertex 54 -18 50
      vertex 54 -1.19904e-14 50
    endloop
  endfacet
  facet normal 0 0 1
    outer loop
      vertex 54 -18 50
      vertex 44 -9.76996e-15 50
      vertex 44 -18 50
    endloop
  endfacet
  facet normal 1 -0 0
    outer loop
      vertex 44 0 650
      vertex 44 18 150
      vertex 44 18 650
    endloop
  endfacet
  facet normal 1 0 0
    outer loop
      vertex 44 0 650
      vertex 44 -9.76996e-15 150
      vertex 44 18 150
    endloop
  endfacet
  facet normal 1 0 0
    outer loop
      vertex 44 -18 50
      vertex 44 -9.76996e-15 100
      vertex 44 -9.76996e-15 150
    endloop
  endfacet
  facet normal 1 -0 0
    outer loop
      vertex 44 -18 650
      vertex 44 -9.76996e-15 150
      vertex 44 0 650
    endloop
  endfacet
  facet normal 1 0 0
    outer loop
      vertex 44 -18 50
      vertex 44 -9.76996e-15 150
      vertex 44 -18 650
    endloop
  endfacet
  facet normal 1 0 0
    outer loop
      vertex 44 -9.76996e-15 100
      vertex 44 -18 50
      vertex 44 -9.76996e-15 50
    endloop
  endfacet
  facet normal -1 0 0
    outer loop
      vertex 54 -18 50
      vertex 54 -1.19904e-14 100
      vertex 54 -1.19904e-14 50
    endloop
  endfacet
  facet normal -1 -0 0
    outer loop
      vertex 54 -1.19904e-14 100
      vertex 54 -18 50
      vertex 54 -1.19904e-14 150
    endloop
  endfacet
  facet normal -1 0 0
    outer loop
      vertex 54 18 150
      vertex 54 0 650
      vertex 54 18 650
    endloop
  endfacet
  facet normal -1 0 0
    outer loop
      vertex 54 -1.19904e-14 150
      vertex 54 0 650
      vertex 54 18 150
    endloop
  endfacet
  facet normal -1 0 0
    outer loop
      vertex 54 -18 650
      vertex 54 -1.19904e-14 150
      vertex 54 -18 50
    endloop
  endfacet
  facet normal -1 0 0
    outer loop
      vertex 54 -1.19904e-14 150
      vertex 54 -18 650
      vertex 54 0 650
    endloop
  endfacet
  facet normal -1 0 0
    outer loop
      vertex -18 80 0
      vertex -18 45 50
      vertex -18 80 700
    endloop
  endfacet
  facet normal -1 0 0
    outer loop
      vertex -18 80 0
      vertex -18 35 50
      vertex -18 45 50
    endloop
  endfacet
  facet normal -1 -0 0
    outer loop
      vertex -18 35 50
      vertex -18 -18 0
      vertex -18 35 650
    endloop
  endfacet
  facet normal -1 0 0
    outer loop
      vertex -18 -18 0
      vertex -18 35 50
      vertex -18 80 0
    endloop
  endfacet
  facet normal -1 0 0
    outer loop
      vertex -18 45 650
      vertex -18 80 700
      vertex -18 45 50
    endloop
  endfacet
  facet normal -1 0 0
    outer loop
      vertex -18 35 650
      vertex -18 80 700
      vertex -18 45 650
    endloop
  endfacet
  facet normal -1 0 0
    outer loop
      vertex -18 35 650
      vertex -18 -18 700
      vertex -18 80 700
    endloop
  endfacet
  facet normal -1 0 0
    outer loop
      vertex -18 -18 700
      vertex -18 35 650
      vertex -18 -18 0
    endloop
  endfacet
  facet normal 1 -4.44089e-16 0
    outer loop
      vertex 1.95399e-14 35 100
      vertex 3.9968e-15 -8.87469e-31 100
      vertex 1.95399e-14 35 50
    endloop
  endfacet
  facet normal 1 -4.44089e-16 0
    outer loop
      vertex 2.39808e-14 45 50
      vertex 3.95239e-14 80 100
      vertex 2.39808e-14 45 100
    endloop
  endfacet
  facet normal 1 -4.44089e-16 0
    outer loop
      vertex 3.95239e-14 80 100
      vertex 2.39808e-14 45 50
      vertex 3.95239e-14 80 0
    endloop
  endfacet
  facet normal 1 -4.44089e-16 0
    outer loop
      vertex 1.95399e-14 35 50
      vertex 3.95239e-14 80 0
      vertex 2.39808e-14 45 50
    endloop
  endfacet
  facet normal 1 -4.44089e-16 0
    outer loop
      vertex 1.95399e-14 35 50
      vertex 3.9968e-15 -8.87469e-31 0
      vertex 3.95239e-14 80 0
    endloop
  endfacet
  facet normal 1 -4.44089e-16 0
    outer loop
      vertex 3.9968e-15 -8.87469e-31 0
      vertex 1.95399e-14 35 50
      vertex 3.9968e-15 -8.87469e-31 100
    endloop
  endfacet
  facet normal 0 -1 0
    outer loop
      vertex -18 -18 0
      vertex -3.9968e-15 -18 700
      vertex -18 -18 700
    endloop
  endfacet
  facet normal 0 -1 -0
    outer loop
      vertex -3.9968e-15 -18 700
      vertex -18 -18 0
      vertex -3.9968e-15 -18 0
    endloop
  endfacet
  facet normal 0 1 0
    outer loop
      vertex 3.95239e-14 80 100
      vertex 3.95239e-14 80 0
      vertex 3.55271e-14 80 100
    endloop
  endfacet
  facet normal 0 1 -0
    outer loop
      vertex 3.55271e-14 80 100
      vertex -18 80 700
      vertex 3.55271e-14 80 700
    endloop
  endfacet
  facet normal 0 1 0
    outer loop
      vertex -18 80 0
      vertex 3.55271e-14 80 100
      vertex 3.95239e-14 80 0
    endloop
  endfacet
  facet normal 0 1 0
    outer loop
      vertex 3.55271e-14 80 100
      vertex -18 80 0
      vertex -18 80 700
    endloop
  endfacet
  facet normal 0 0 -1
    outer loop
      vertex 800 1355 650
      vertex 818 1365 650
      vertex 818 1355 650
    endloop
  endfacet
  facet normal 0 0 -1
    outer loop
      vertex 800 1355 650
      vertex 800 1365 650
      vertex 818 1365 650
    endloop
  endfacet
  facet normal 0 0 -1
    outer loop
      vertex 782 1364 650
      vertex 800 1355 650
      vertex 782 1355 650
    endloop
  endfacet
  facet normal 0 0 -1
    outer loop
      vertex 800 1355 650
      vertex 782 1364 650
      vertex 800 1365 650
    endloop
  endfacet
  facet normal -0 0 -1
    outer loop
      vertex 800 1365 650
      vertex 782 1364 650
      vertex 782 1365 650
    endloop
  endfacet
  facet normal 0 0 -1
    outer loop
      vertex 18 80 650
      vertex 36 1364 650
      vertex 36 18 650
    endloop
  endfacet
  facet normal 0 0 -1
    outer loop
      vertex 18 1364 650
      vertex 36 1364 650
      vertex 18 80 650
    endloop
  endfacet
  facet normal 0 0 -1
    outer loop
      vertex 18 35 650
      vertex 36 18 650
      vertex 18 18 650
    endloop
  endfacet
  facet normal 0 0 -1
    outer loop
      vertex 18 45 650
      vertex 36 18 650
      vertex 18 35 650
    endloop
  endfacet
  facet normal 0 0 -1
    outer loop
      vertex 18 80 650
      vertex 36 18 650
      vertex 18 45 650
    endloop
  endfacet
  facet normal 0 -0 -1
    outer loop
      vertex 35 1382 650
      vertex 36 1364 650
      vertex 18 1364 650
    endloop
  endfacet
  facet normal 0 0 -1
    outer loop
      vertex 36 1364 650
      vertex 35 1382 650
      vertex 36 1382 650
    endloop
  endfacet
  facet normal -0 0 -1
    outer loop
      vertex 35 1382 650
      vertex 18 1364 650
      vertex 18 1382 650
    endloop
  endfacet
  facet normal 0 0 -1
    outer loop
      vertex 36 1364 650
      vertex 782 1365 650
      vertex 782 1364 650
    endloop
  endfacet
  facet normal -0 0 -1
    outer loop
      vertex 782 1365 650
      vertex 36 1364 650
      vertex 782 1382 650
    endloop
  endfacet
  facet normal -0 0 -1
    outer loop
      vertex 782 1382 650
      vertex 36 1364 650
      vertex 36 1382 650
    endloop
  endfacet
  facet normal 0 0 -1
    outer loop
      vertex 36 1382 650
      vertex 45 1400 650
      vertex 45 1382 650
    endloop
  endfacet
  facet normal -0 0 -1
    outer loop
      vertex 45 1400 650
      vertex 36 1382 650
      vertex 35 1400 650
    endloop
  endfacet
  facet normal 0 0 -1
    outer loop
      vertex 35 1400 650
      vertex 36 1382 650
      vertex 35 1382 650
    endloop
  endfacet
  facet normal 0 0 -1
    outer loop
      vertex 45 1400 650
      vertex 35 1400 650
      vertex 45 1418 650
    endloop
  endfacet
  facet normal -0 0 -1
    outer loop
      vertex 45 1418 650
      vertex 35 1400 650
      vertex 35 1418 650
    endloop
  endfacet
  facet normal 0 0 -1
    outer loop
      vertex 18 35 650
      vertex 2.39808e-14 45 650
      vertex 18 45 650
    endloop
  endfacet
  facet normal 0 0 -1
    outer loop
      vertex 1.55431e-14 35 650
      vertex 2.39808e-14 45 650
      vertex 18 35 650
    endloop
  endfacet
  facet normal 0 0 -1
    outer loop
      vertex -18 35 650
      vertex 2.39808e-14 45 650
      vertex 1.55431e-14 35 650
    endloop
  endfacet
  facet normal -0 0 -1
    outer loop
      vertex 2.39808e-14 45 650
      vertex -18 35 650
      vertex -18 45 650
    endloop
  endfacet
  facet normal 0 -1 0
    outer loop
      vertex -18 45 650
      vertex 1.9984e-14 45 150
      vertex 2.39808e-14 45 650
    endloop
  endfacet
  facet normal 0 -1 0
    outer loop
      vertex -18 45 50
      vertex 1.9984e-14 45 150
      vertex -18 45 650
    endloop
  endfacet
  facet normal 0 -1 -0
    outer loop
      vertex 1.9984e-14 45 150
      vertex -18 45 50
      vertex 1.9984e-14 45 100
    endloop
  endfacet
  facet normal 0 -1 0
    outer loop
      vertex 2.39808e-14 45 50
      vertex 1.9984e-14 45 100
      vertex -18 45 50
    endloop
  endfacet
  facet normal 0 -1 0
    outer loop
      vertex 1.9984e-14 45 100
      vertex 2.39808e-14 45 50
      vertex 2.39808e-14 45 100
    endloop
  endfacet
  facet normal 0 -1 -0
    outer loop
      vertex 2.39808e-14 45 650
      vertex 1.9984e-14 45 150
      vertex 2.39808e-14 45 150
    endloop
  endfacet
  facet normal -0 0 1
    outer loop
      vertex -18 45 50
      vertex 1.95399e-14 35 50
      vertex 2.39808e-14 45 50
    endloop
  endfacet
  facet normal 0 0 1
    outer loop
      vertex 1.95399e-14 35 50
      vertex -18 45 50
      vertex -18 35 50
    endloop
  endfacet
  facet normal 0 1 0
    outer loop
      vertex 1.95399e-14 35 100
      vertex 1.95399e-14 35 50
      vertex 1.55431e-14 35 100
    endloop
  endfacet
  facet normal 0 1 -0
    outer loop
      vertex 1.55431e-14 35 100
      vertex -18 35 650
      vertex 1.55431e-14 35 650
    endloop
  endfacet
  facet normal 0 1 0
    outer loop
      vertex -18 35 50
      vertex 1.55431e-14 35 100
      vertex 1.95399e-14 35 50
    endloop
  endfacet
  facet normal 0 1 0
    outer loop
      vertex 1.55431e-14 35 100
      vertex -18 35 50
      vertex -18 35 650
    endloop
  endfacet
  facet normal -1 4.44089e-16 0
    outer loop
      vertex 1.55431e-14 35 100
      vertex 1.9984e-14 45 150
      vertex 1.9984e-14 45 100
    endloop
  endfacet
  facet normal -1 4.44089e-16 0
    outer loop
      vertex 1.9984e-14 45 150
      vertex 1.55431e-14 35 100
      vertex 1.55431e-14 35 150
    endloop
  endfacet
  facet normal 0 0 0
    outer loop
      vertex 1.55431e-14 35 150
      vertex 1.55431e-14 35 100
      vertex 1.55431e-14 35 650
    endloop
  endfacet
  facet normal 1 0 0
    outer loop
      vertex 18 35 650
      vertex 18 18 650
      vertex 18 35 150
    endloop
  endfacet
  facet normal 1 0 0
    outer loop
      vertex 18 45 150
      vertex 18 80 650
      vertex 18 45 650
    endloop
  endfacet
  facet normal 1 0 0
    outer loop
      vertex 18 80 650
      vertex 18 45 150
      vertex 18 80 100
    endloop
  endfacet
  facet normal 1 0 0
    outer loop
      vertex 18 18 100
      vertex 18 45 150
      vertex 18 35 150
    endloop
  endfacet
  facet normal 1 0 0
    outer loop
      vertex 18 45 150
      vertex 18 18 100
      vertex 18 80 100
    endloop
  endfacet
  facet normal 1 0 0
    outer loop
      vertex 18 18 100
      vertex 18 35 150
      vertex 18 18 650
    endloop
  endfacet
  facet normal 0 0 -1
    outer loop
      vertex 54 -1.19904e-14 100
      vertex 80 18 100
      vertex 80 -1.77636e-14 100
    endloop
  endfacet
  facet normal 0 0 -1
    outer loop
      vertex 44 -9.76996e-15 100
      vertex 80 18 100
      vertex 54 -1.19904e-14 100
    endloop
  endfacet
  facet normal 0 0 -1
    outer loop
      vertex 44 -9.76996e-15 100
      vertex 18 18 100
      vertex 80 18 100
    endloop
  endfacet
  facet normal 0 0 -1
    outer loop
      vertex 2.39808e-14 45 100
      vertex 18 80 100
      vertex 18 18 100
    endloop
  endfacet
  facet normal -0 0 -1
    outer loop
      vertex 18 80 100
      vertex 2.39808e-14 45 100
      vertex 3.95239e-14 80 100
    endloop
  endfacet
  facet normal 0 0 -1
    outer loop
      vertex 1.95399e-14 35 100
      vertex 2.39808e-14 45 100
      vertex 18 18 100
    endloop
  endfacet
  facet normal -0 0 -1
    outer loop
      vertex 2.39808e-14 45 100
      vertex 1.95399e-14 35 100
      vertex 1.9984e-14 45 100
    endloop
  endfacet
  facet normal -0 0 -1
    outer loop
      vertex 18 18 100
      vertex 3.9968e-15 -8.87469e-31 100
      vertex 1.95399e-14 35 100
    endloop
  endfacet
  facet normal 0 0 -1
    outer loop
      vertex 3.9968e-15 -8.87469e-31 100
      vertex 18 18 100
      vertex 44 -9.76996e-15 100
    endloop
  endfacet
  facet normal 0 0 -1
    outer loop
      vertex 1.9984e-14 45 100
      vertex 1.95399e-14 35 100
      vertex 1.55431e-14 35 100
    endloop
  endfacet
  facet normal 0 0 0
    outer loop
      vertex 3.95239e-14 80 100
      vertex 3.55271e-14 80 100
      vertex 18 80 100
    endloop
  endfacet
  facet normal 0 1 -0
    outer loop
      vertex 18 80 650
      vertex 3.55271e-14 80 700
      vertex 18 80 700
    endloop
  endfacet
  facet normal 0 1 0
    outer loop
      vertex 3.55271e-14 80 100
      vertex 18 80 650
      vertex 18 80 100
    endloop
  endfacet
  facet normal 0 1 0
    outer loop
      vertex 18 80 650
      vertex 3.55271e-14 80 100
      vertex 3.55271e-14 80 700
    endloop
  endfacet
  facet normal 0 -1 0
    outer loop
      vertex 2.39808e-14 45 150
      vertex 18 45 650
      vertex 2.39808e-14 45 650
    endloop
  endfacet
  facet normal 0 -1 -0
    outer loop
      vertex 18 45 650
      vertex 2.39808e-14 45 150
      vertex 18 45 150
    endloop
  endfacet
  facet normal -0 0 1
    outer loop
      vertex 2.39808e-14 45 150
      vertex 18 35 150
      vertex 18 45 150
    endloop
  endfacet
  facet normal 0 0 1
    outer loop
      vertex 1.55431e-14 35 150
      vertex 2.39808e-14 45 150
      vertex 1.9984e-14 45 150
    endloop
  endfacet
  facet normal 0 0 1
    outer loop
      vertex 2.39808e-14 45 150
      vertex 1.55431e-14 35 150
      vertex 18 35 150
    endloop
  endfacet
  facet normal 0 1 -0
    outer loop
      vertex 18 35 150
      vertex 1.55431e-14 35 650
      vertex 18 35 650
    endloop
  endfacet
  facet normal 0 1 0
    outer loop
      vertex 1.55431e-14 35 650
      vertex 18 35 150
      vertex 1.55431e-14 35 150
    endloop
  endfacet
  facet normal 0 1 0
    outer loop
      vertex 80 18 700
      vertex 54 18 650
      vertex 18 18 700
    endloop
  endfacet
  facet normal 0 1 0
    outer loop
      vertex 80 18 700
      vertex 54 18 150
      vertex 54 18 650
    endloop
  endfacet
  facet normal 0 1 0
    outer loop
      vertex 54 18 150
      vertex 80 18 100
      vertex 44 18 150
    endloop
  endfacet
  facet normal 0 1 -0
    outer loop
      vertex 80 18 100
      vertex 54 18 150
      vertex 80 18 700
    endloop
  endfacet
  facet normal 0 1 -0
    outer loop
      vertex 44 18 650
      vertex 18 18 700
      vertex 54 18 650
    endloop
  endfacet
  facet normal 0 1 0
    outer loop
      vertex 44 18 650
      vertex 18 18 650
      vertex 18 18 700
    endloop
  endfacet
  facet normal 0 1 -0
    outer loop
      vertex 44 18 150
      vertex 18 18 650
      vertex 44 18 650
    endloop
  endfacet
  facet normal 0 1 0
    outer loop
      vertex 44 18 150
      vertex 18 18 100
      vertex 18 18 650
    endloop
  endfacet
  facet normal 0 1 0
    outer loop
      vertex 18 18 100
      vertex 44 18 150
      vertex 80 18 100
    endloop
  endfacet
  facet normal -0 0 1
    outer loop
      vertex 44 18 150
      vertex 54 -1.19904e-14 150
      vertex 54 18 150
    endloop
  endfacet
  facet normal 0 0 1
    outer loop
      vertex 54 -1.19904e-14 150
      vertex 44 18 150
      vertex 44 -9.76996e-15 150
    endloop
  endfacet
  facet normal -1 0 0
    outer loop
      vertex 800 80 0
      vertex 800 54 50
      vertex 800 80 100
    endloop
  endfacet
  facet normal -1 0 0
    outer loop
      vertex 800 80 0
      vertex 800 44 50
      vertex 800 54 50
    endloop
  endfacet
  facet normal -1 0 0
    outer loop
      vertex 800 3.9968e-15 0
      vertex 800 44 50
      vertex 800 80 0
    endloop
  endfacet
  facet normal -1 0 0
    outer loop
      vertex 800 3.9968e-15 100
      vertex 800 44 50
      vertex 800 3.9968e-15 0
    endloop
  endfacet
  facet normal -1 0 0
    outer loop
      vertex 800 44 50
      vertex 800 3.9968e-15 100
      vertex 800 44 100
    endloop
  endfacet
  facet normal -1 -0 0
    outer loop
      vertex 800 80 100
      vertex 800 54 50
      vertex 800 54 100
    endloop
  endfacet
  facet normal 1 -0 0
    outer loop
      vertex 800 44 150
      vertex 800 54 100
      vertex 800 54 150
    endloop
  endfacet
  facet normal 1 0 0
    outer loop
      vertex 800 54 100
      vertex 800 44 150
      vertex 800 44 100
    endloop
  endfacet
  facet normal 1 0 0
    outer loop
      vertex 818 80 700
      vertex 818 54 650
      vertex 818 80 0
    endloop
  endfacet
  facet normal 1 0 0
    outer loop
      vertex 818 80 700
      vertex 818 44 650
      vertex 818 54 650
    endloop
  endfacet
  facet normal 1 0 0
    outer loop
      vertex 818 44 650
      vertex 818 8.87469e-31 700
      vertex 818 44 50
    endloop
  endfacet
  facet normal 1 -0 0
    outer loop
      vertex 818 8.87469e-31 700
      vertex 818 44 650
      vertex 818 80 700
    endloop
  endfacet
  facet normal 1 -0 0
    outer loop
      vertex 818 54 50
      vertex 818 80 0
      vertex 818 54 650
    endloop
  endfacet
  facet normal 1 -0 0
    outer loop
      vertex 818 44 50
      vertex 818 80 0
      vertex 818 54 50
    endloop
  endfacet
  facet normal 1 0 0
    outer loop
      vertex 818 44 50
      vertex 818 8.87469e-31 0
      vertex 818 80 0
    endloop
  endfacet
  facet normal 1 0 0
    outer loop
      vertex 818 8.87469e-31 0
      vertex 818 44 50
      vertex 818 8.87469e-31 700
    endloop
  endfacet
  facet normal 0 1 0
    outer loop
      vertex 818 80 700
      vertex 800 80 100
      vertex 782 80 700
    endloop
  endfacet
  facet normal 0 1 -0
    outer loop
      vertex 818 80 0
      vertex 800 80 100
      vertex 818 80 700
    endloop
  endfacet
  facet normal 0 1 0
    outer loop
      vertex 800 80 100
      vertex 818 80 0
      vertex 800 80 0
    endloop
  endfacet
  facet normal 0 1 0
    outer loop
      vertex 782 80 700
      vertex 800 80 100
      vertex 782 80 100
    endloop
  endfacet
  facet normal 0 0 0
    outer loop
      vertex 818 -18 0
      vertex 818 8.87469e-31 0
      vertex 818 0 0
    endloop
  endfacet
  facet normal 0 0 -1
    outer loop
      vertex 800 3.9968e-15 0
      vertex 818 8.87469e-31 0
      vertex 818 -18 0
    endloop
  endfacet
  facet normal 0 0 -1
    outer loop
      vertex 818 8.87469e-31 0
      vertex 800 3.9968e-15 0
      vertex 818 80 0
    endloop
  endfacet
  facet normal 0 0 -1
    outer loop
      vertex 720 -18 0
      vertex 800 3.9968e-15 0
      vertex 818 -18 0
    endloop
  endfacet
  facet normal -0 0 -1
    outer loop
      vertex 800 3.9968e-15 0
      vertex 720 -18 0
      vertex 720 2.17604e-14 0
    endloop
  endfacet
  facet normal -0 0 -1
    outer loop
      vertex 818 80 0
      vertex 800 3.9968e-15 0
      vertex 800 80 0
    endloop
  endfacet
  facet normal 0 0 -1
    outer loop
      vertex 782 44 650
      vertex 818 54 650
      vertex 818 44 650
    endloop
  endfacet
  facet normal -0 0 -1
    outer loop
      vertex 818 54 650
      vertex 782 44 650
      vertex 782 54 650
    endloop
  endfacet
  facet normal -0 0 1
    outer loop
      vertex 800 54 50
      vertex 818 44 50
      vertex 818 54 50
    endloop
  endfacet
  facet normal 0 0 1
    outer loop
      vertex 818 44 50
      vertex 800 54 50
      vertex 800 44 50
    endloop
  endfacet
  facet normal 0 1 0
    outer loop
      vertex 818 44 650
      vertex 800 44 150
      vertex 782 44 650
    endloop
  endfacet
  facet normal 0 1 -0
    outer loop
      vertex 818 44 50
      vertex 800 44 150
      vertex 818 44 650
    endloop
  endfacet
  facet normal 0 1 0
    outer loop
      vertex 800 44 150
      vertex 818 44 50
      vertex 800 44 100
    endloop
  endfacet
  facet normal 0 1 0
    outer loop
      vertex 800 44 100
      vertex 818 44 50
      vertex 800 44 50
    endloop
  endfacet
  facet normal 0 1 0
    outer loop
      vertex 782 44 650
      vertex 800 44 150
      vertex 782 44 150
    endloop
  endfacet
  facet normal 0 -1 0
    outer loop
      vertex 800 54 150
      vertex 782 54 650
      vertex 782 54 150
    endloop
  endfacet
  facet normal 0 -1 0
    outer loop
      vertex 782 54 650
      vertex 800 54 150
      vertex 818 54 650
    endloop
  endfacet
  facet normal 0 -1 0
    outer loop
      vertex 818 54 50
      vertex 800 54 150
      vertex 800 54 100
    endloop
  endfacet
  facet normal 0 -1 0
    outer loop
      vertex 818 54 50
      vertex 800 54 100
      vertex 800 54 50
    endloop
  endfacet
  facet normal 0 -1 0
    outer loop
      vertex 800 54 150
      vertex 818 54 50
      vertex 818 54 650
    endloop
  endfacet
  facet normal 0 -1 0
    outer loop
      vertex 765 -18 650
      vertex 720 -18 700
      vertex 755 -18 650
    endloop
  endfacet
  facet normal 0 -1 0
    outer loop
      vertex 720 -18 700
      vertex 755 -18 50
      vertex 755 -18 650
    endloop
  endfacet
  facet normal 0 -1 -0
    outer loop
      vertex 755 -18 50
      vertex 720 -18 0
      vertex 765 -18 50
    endloop
  endfacet
  facet normal 0 -1 0
    outer loop
      vertex 720 -18 0
      vertex 755 -18 50
      vertex 720 -18 700
    endloop
  endfacet
  facet normal 0 -1 0
    outer loop
      vertex 720 -18 700
      vertex 765 -18 650
      vertex 818 -18 700
    endloop
  endfacet
  facet normal 0 -1 0
    outer loop
      vertex 765 -18 50
      vertex 818 -18 700
      vertex 765 -18 650
    endloop
  endfacet
  facet normal 0 -1 0
    outer loop
      vertex 765 -18 50
      vertex 818 -18 0
      vertex 818 -18 700
    endloop
  endfacet
  facet normal 0 -1 0
    outer loop
      vertex 818 -18 0
      vertex 765 -18 50
      vertex 720 -18 0
    endloop
  endfacet
  facet normal 1 -0 0
    outer loop
      vertex 818 0 700
      vertex 818 8.87469e-31 0
      vertex 818 8.87469e-31 700
    endloop
  endfacet
  facet normal 1 0 0
    outer loop
      vertex 818 8.87469e-31 0
      vertex 818 0 700
      vertex 818 0 0
    endloop
  endfacet
  facet normal 2.22045e-16 1 0
    outer loop
      vertex 800 3.9968e-15 100
      vertex 765 1.17684e-14 50
      vertex 765 1.17684e-14 100
    endloop
  endfacet
  facet normal 2.22045e-16 1 0
    outer loop
      vertex 765 1.17684e-14 50
      vertex 800 3.9968e-15 0
      vertex 755 1.39888e-14 50
    endloop
  endfacet
  facet normal 2.22045e-16 1 -0
    outer loop
      vertex 800 3.9968e-15 0
      vertex 765 1.17684e-14 50
      vertex 800 3.9968e-15 100
    endloop
  endfacet
  facet normal 2.22045e-16 1 -0
    outer loop
      vertex 755 1.39888e-14 50
      vertex 720 2.17604e-14 100
      vertex 755 1.39888e-14 100
    endloop
  endfacet
  facet normal 2.22045e-16 1 0
    outer loop
      vertex 755 1.39888e-14 50
      vertex 720 2.17604e-14 0
      vertex 720 2.17604e-14 100
    endloop
  endfacet
  facet normal 2.22045e-16 1 0
    outer loop
      vertex 720 2.17604e-14 0
      vertex 755 1.39888e-14 50
      vertex 800 3.9968e-15 0
    endloop
  endfacet
  facet normal 1 -0 0
    outer loop
      vertex 818 -18 700
      vertex 818 0 0
      vertex 818 0 700
    endloop
  endfacet
  facet normal 1 0 0
    outer loop
      vertex 818 0 0
      vertex 818 -18 700
      vertex 818 -18 0
    endloop
  endfacet
  facet normal -1 0 0
    outer loop
      vertex 720 2.17604e-14 0
      vertex 720 1.77636e-14 100
      vertex 720 2.17604e-14 100
    endloop
  endfacet
  facet normal -1 0 0
    outer loop
      vertex 720 1.77636e-14 100
      vertex 720 0 650
      vertex 720 1.77636e-14 650
    endloop
  endfacet
  facet normal -1 0 0
    outer loop
      vertex 720 -18 0
      vertex 720 1.77636e-14 100
      vertex 720 2.17604e-14 0
    endloop
  endfacet
  facet normal -1 0 0
    outer loop
      vertex 720 -18 700
      vertex 720 1.77636e-14 100
      vertex 720 -18 0
    endloop
  endfacet
  facet normal -1 0 0
    outer loop
      vertex 720 1.77636e-14 100
      vertex 720 -18 700
      vertex 720 0 650
    endloop
  endfacet
  facet normal -1 0 0
    outer loop
      vertex 720 0 650
      vertex 720 -18 700
      vertex 720 0 700
    endloop
  endfacet
  facet normal 1 0 0
    outer loop
      vertex 755 1.39888e-14 650
      vertex 755 9.99201e-15 150
      vertex 755 1.39888e-14 150
    endloop
  endfacet
  facet normal 1 -0 0
    outer loop
      vertex 755 -18 650
      vertex 755 9.99201e-15 150
      vertex 755 0 650
    endloop
  endfacet
  facet normal 1 -0 0
    outer loop
      vertex 755 0 650
      vertex 755 9.99201e-15 150
      vertex 755 1.39888e-14 650
    endloop
  endfacet
  facet normal 1 -0 0
    outer loop
      vertex 755 9.99201e-15 100
      vertex 755 1.39888e-14 50
      vertex 755 1.39888e-14 100
    endloop
  endfacet
  facet normal 1 0 0
    outer loop
      vertex 755 -18 50
      vertex 755 9.99201e-15 150
      vertex 755 -18 650
    endloop
  endfacet
  facet normal 1 0 0
    outer loop
      vertex 755 9.99201e-15 150
      vertex 755 -18 50
      vertex 755 9.99201e-15 100
    endloop
  endfacet
  facet normal 1 0 0
    outer loop
      vertex 755 9.99201e-15 100
      vertex 755 -18 50
      vertex 755 1.39888e-14 50
    endloop
  endfacet
  facet normal 0 0 1
    outer loop
      vertex 755 1.39888e-14 50
      vertex 765 -18 50
      vertex 765 1.17684e-14 50
    endloop
  endfacet
  facet normal 0 0 1
    outer loop
      vertex 765 -18 50
      vertex 755 1.39888e-14 50
      vertex 755 -18 50
    endloop
  endfacet
  facet normal -1 0 0
    outer loop
      vertex 765 1.17684e-14 50
      vertex 765 7.77156e-15 100
      vertex 765 1.17684e-14 100
    endloop
  endfacet
  facet normal -1 0 0
    outer loop
      vertex 765 7.77156e-15 100
      vertex 765 0 650
      vertex 765 7.77156e-15 650
    endloop
  endfacet
  facet normal -1 0 0
    outer loop
      vertex 765 -18 50
      vertex 765 7.77156e-15 100
      vertex 765 1.17684e-14 50
    endloop
  endfacet
  facet normal -1 0 0
    outer loop
      vertex 765 -18 650
      vertex 765 7.77156e-15 100
      vertex 765 -18 50
    endloop
  endfacet
  facet normal -1 0 0
    outer loop
      vertex 765 7.77156e-15 100
      vertex 765 -18 650
      vertex 765 0 650
    endloop
  endfacet
  facet normal -2.22045e-16 -1 0
    outer loop
      vertex 755 9.99201e-15 100
      vertex 765 7.77156e-15 150
      vertex 755 9.99201e-15 150
    endloop
  endfacet
  facet normal -2.22045e-16 -1 -0
    outer loop
      vertex 765 7.77156e-15 150
      vertex 755 9.99201e-15 100
      vertex 765 7.77156e-15 100
    endloop
  endfacet
  facet normal 0 0 0
    outer loop
      vertex 765 7.77156e-15 150
      vertex 765 7.77156e-15 100
      vertex 765 7.77156e-15 650
    endloop
  endfacet
  facet normal 0 1 0
    outer loop
      vertex 755 18 650
      vertex 782 18 700
      vertex 765 18 650
    endloop
  endfacet
  facet normal 0 1 0
    outer loop
      vertex 782 18 700
      vertex 765 18 150
      vertex 765 18 650
    endloop
  endfacet
  facet normal 0 1 0
    outer loop
      vertex 765 18 150
      vertex 782 18 100
      vertex 755 18 150
    endloop
  endfacet
  facet normal 0 1 -0
    outer loop
      vertex 782 18 100
      vertex 765 18 150
      vertex 782 18 700
    endloop
  endfacet
  facet normal 0 1 0
    outer loop
      vertex 782 18 700
      vertex 755 18 650
      vertex 720 18 700
    endloop
  endfacet
  facet normal 0 1 -0
    outer loop
      vertex 755 18 150
      vertex 720 18 700
      vertex 755 18 650
    endloop
  endfacet
  facet normal 0 1 0
    outer loop
      vertex 755 18 150
      vertex 720 18 100
      vertex 720 18 700
    endloop
  endfacet
  facet normal 0 1 0
    outer loop
      vertex 720 18 100
      vertex 755 18 150
      vertex 782 18 100
    endloop
  endfacet
  facet normal 0 0 -1
    outer loop
      vertex 765 7.77156e-15 100
      vertex 755 9.99201e-15 100
      vertex 765 1.17684e-14 100
    endloop
  endfacet
  facet normal 0 0 -1
    outer loop
      vertex 782 18 100
      vertex 800 44 100
      vertex 800 3.9968e-15 100
    endloop
  endfacet
  facet normal -0 0 -1
    outer loop
      vertex 800 44 100
      vertex 782 18 100
      vertex 800 54 100
    endloop
  endfacet
  facet normal 0 0 -1
    outer loop
      vertex 782 80 100
      vertex 800 54 100
      vertex 782 18 100
    endloop
  endfacet
  facet normal 0 0 -1
    outer loop
      vertex 765 1.17684e-14 100
      vertex 782 18 100
      vertex 800 3.9968e-15 100
    endloop
  endfacet
  facet normal 0 0 -1
    outer loop
      vertex 755 1.39888e-14 100
      vertex 765 1.17684e-14 100
      vertex 755 9.99201e-15 100
    endloop
  endfacet
  facet normal 0 0 -1
    outer loop
      vertex 765 1.17684e-14 100
      vertex 755 1.39888e-14 100
      vertex 782 18 100
    endloop
  endfacet
  facet normal 0 0 -1
    outer loop
      vertex 720 18 100
      vertex 755 1.39888e-14 100
      vertex 720 2.17604e-14 100
    endloop
  endfacet
  facet normal 0 0 -1
    outer loop
      vertex 755 1.39888e-14 100
      vertex 720 18 100
      vertex 782 18 100
    endloop
  endfacet
  facet normal 0 0 -1
    outer loop
      vertex 800 54 100
      vertex 782 80 100
      vertex 800 80 100
    endloop
  endfacet
  facet normal 0 0 0
    outer loop
      vertex 720 2.17604e-14 100
      vertex 720 1.77636e-14 100
      vertex 720 18 100
    endloop
  endfacet
  facet normal -1 0 0
    outer loop
      vertex 720 1.77636e-14 100
      vertex 720 18 650
      vertex 720 18 100
    endloop
  endfacet
  facet normal -1 -0 0
    outer loop
      vertex 720 18 650
      vertex 720 1.77636e-14 100
      vertex 720 1.77636e-14 650
    endloop
  endfacet
  facet normal 0 0 0
    outer loop
      vertex 720 18 700
      vertex 720 18 100
      vertex 720 18 650
    endloop
  endfacet
  facet normal 1 -0 0
    outer loop
      vertex 755 1.39888e-14 650
      vertex 755 18 150
      vertex 755 18 650
    endloop
  endfacet
  facet normal 1 0 0
    outer loop
      vertex 755 18 150
      vertex 755 1.39888e-14 650
      vertex 755 1.39888e-14 150
    endloop
  endfacet
  facet normal -0 0 1
    outer loop
      vertex 755 18 150
      vertex 765 7.77156e-15 150
      vertex 765 18 150
    endloop
  endfacet
  facet normal -0 0 1
    outer loop
      vertex 755 1.39888e-14 150
      vertex 765 7.77156e-15 150
      vertex 755 18 150
    endloop
  endfacet
  facet normal 0 0 1
    outer loop
      vertex 765 7.77156e-15 150
      vertex 755 1.39888e-14 150
      vertex 755 9.99201e-15 150
    endloop
  endfacet
  facet normal -1 0 0
    outer loop
      vertex 765 7.77156e-15 150
      vertex 765 18 650
      vertex 765 18 150
    endloop
  endfacet
  facet normal -1 -0 0
    outer loop
      vertex 765 18 650
      vertex 765 7.77156e-15 150
      vertex 765 7.77156e-15 650
    endloop
  endfacet
  facet normal -1 0 0
    outer loop
      vertex 782 80 100
      vertex 782 54 150
      vertex 782 80 700
    endloop
  endfacet
  facet normal -1 0 0
    outer loop
      vertex 782 80 100
      vertex 782 44 150
      vertex 782 54 150
    endloop
  endfacet
  facet normal -1 -0 0
    outer loop
      vertex 782 44 150
      vertex 782 18 100
      vertex 782 44 650
    endloop
  endfacet
  facet normal -1 0 0
    outer loop
      vertex 782 18 100
      vertex 782 44 150
      vertex 782 80 100
    endloop
  endfacet
  facet normal -1 0 0
    outer loop
      vertex 782 54 650
      vertex 782 80 700
      vertex 782 54 150
    endloop
  endfacet
  facet normal -1 0 0
    outer loop
      vertex 782 44 650
      vertex 782 80 700
      vertex 782 54 650
    endloop
  endfacet
  facet normal -1 0 0
    outer loop
      vertex 782 44 650
      vertex 782 18 700
      vertex 782 80 700
    endloop
  endfacet
  facet normal -1 0 0
    outer loop
      vertex 782 18 700
      vertex 782 44 650
      vertex 782 18 100
    endloop
  endfacet
  facet normal -0 0 1
    outer loop
      vertex 782 54 150
      vertex 800 44 150
      vertex 800 54 150
    endloop
  endfacet
  facet normal 0 0 1
    outer loop
      vertex 800 44 150
      vertex 782 54 150
      vertex 782 44 150
    endloop
  endfacet
  facet normal 1 -1.22465e-16 0
    outer loop
      vertex -6.61309e-15 1346 100
      vertex -9.79717e-15 1320 100
      vertex -6.61309e-15 1346 50
    endloop
  endfacet
  facet normal 1 -1.22465e-16 0
    outer loop
      vertex -5.38845e-15 1356 50
      vertex -4.89467e-31 1400 100
      vertex -5.38845e-15 1356 100
    endloop
  endfacet
  facet normal 1 -1.22465e-16 0
    outer loop
      vertex -4.89467e-31 1400 100
      vertex -5.38845e-15 1356 50
      vertex -4.89467e-31 1400 0
    endloop
  endfacet
  facet normal 1 -1.22465e-16 1.35525e-23
    outer loop
      vertex -9.79717e-15 1320 0
      vertex -5.38845e-15 1356 50
      vertex -6.61309e-15 1346 50
    endloop
  endfacet
  facet normal 1 -1.22465e-16 -1.69407e-24
    outer loop
      vertex -5.38845e-15 1356 50
      vertex -9.79717e-15 1320 0
      vertex -4.89467e-31 1400 0
    endloop
  endfacet
  facet normal 1 -1.22465e-16 0
    outer loop
      vertex -9.79717e-15 1320 0
      vertex -6.61309e-15 1346 50
      vertex -9.79717e-15 1320 100
    endloop
  endfacet
  facet normal -1 1.22465e-16 0
    outer loop
      vertex -6.61309e-15 1346 100
      vertex -5.38845e-15 1356 150
      vertex -5.38845e-15 1356 100
    endloop
  endfacet
  facet normal -1 1.22465e-16 0
    outer loop
      vertex -5.38845e-15 1356 150
      vertex -6.61309e-15 1346 100
      vertex -6.61309e-15 1346 150
    endloop
  endfacet
  facet normal -1 0 0
    outer loop
      vertex -18 1400 0
      vertex -18 1356 50
      vertex -18 1400 700
    endloop
  endfacet
  facet normal -1 0 0
    outer loop
      vertex -18 1320 0
      vertex -18 1356 50
      vertex -18 1400 0
    endloop
  endfacet
  facet normal -1 -0 0
    outer loop
      vertex -18 1346 50
      vertex -18 1320 0
      vertex -18 1346 650
    endloop
  endfacet
  facet normal -1 -0 0
    outer loop
      vertex -18 1356 50
      vertex -18 1320 0
      vertex -18 1346 50
    endloop
  endfacet
  facet normal -1 0 0
    outer loop
      vertex -18 1356 650
      vertex -18 1400 700
      vertex -18 1356 50
    endloop
  endfacet
  facet normal -1 0 0
    outer loop
      vertex -18 1320 700
      vertex -18 1356 650
      vertex -18 1346 650
    endloop
  endfacet
  facet normal -1 0 0
    outer loop
      vertex -18 1356 650
      vertex -18 1320 700
      vertex -18 1400 700
    endloop
  endfacet
  facet normal -1 0 0
    outer loop
      vertex -18 1320 700
      vertex -18 1346 650
      vertex -18 1320 0
    endloop
  endfacet
  facet normal 0 -1 0
    outer loop
      vertex -18 1320 700
      vertex -9.79717e-15 1320 100
      vertex 18 1320 700
    endloop
  endfacet
  facet normal 0 -1 0
    outer loop
      vertex -18 1320 0
      vertex -9.79717e-15 1320 100
      vertex -18 1320 700
    endloop
  endfacet
  facet normal 0 -1 -0
    outer loop
      vertex -9.79717e-15 1320 100
      vertex -18 1320 0
      vertex -9.79717e-15 1320 0
    endloop
  endfacet
  facet normal 0 -1 -0
    outer loop
      vertex 18 1320 700
      vertex -9.79717e-15 1320 100
      vertex 18 1320 100
    endloop
  endfacet
  facet normal 0 0 -1
    outer loop
      vertex -4.89467e-31 1400 0
      vertex 80 1418 0
      vertex 80 1400 0
    endloop
  endfacet
  facet normal 0 0 -1
    outer loop
      vertex -18 1320 0
      vertex -4.89467e-31 1400 0
      vertex -9.79717e-15 1320 0
    endloop
  endfacet
  facet normal 0 0 -1
    outer loop
      vertex -18 1400 0
      vertex -4.89467e-31 1400 0
      vertex -18 1320 0
    endloop
  endfacet
  facet normal 0 0 -1
    outer loop
      vertex -18 1418 0
      vertex -4.89467e-31 1400 0
      vertex -18 1400 0
    endloop
  endfacet
  facet normal 0 0 -1
    outer loop
      vertex -4.89467e-31 1400 0
      vertex -18 1418 0
      vertex 80 1418 0
    endloop
  endfacet
  facet normal 0 0 -1
    outer loop
      vertex -18 1346 650
      vertex 18 1356 650
      vertex 18 1346 650
    endloop
  endfacet
  facet normal -0 0 -1
    outer loop
      vertex 18 1356 650
      vertex -18 1346 650
      vertex -18 1356 650
    endloop
  endfacet
  facet normal -0 0 1
    outer loop
      vertex -18 1356 50
      vertex -6.61309e-15 1346 50
      vertex -5.38845e-15 1356 50
    endloop
  endfacet
  facet normal 0 0 1
    outer loop
      vertex -6.61309e-15 1346 50
      vertex -18 1356 50
      vertex -18 1346 50
    endloop
  endfacet
  facet normal 0 -1 0
    outer loop
      vertex -18 1356 650
      vertex -5.38845e-15 1356 150
      vertex 18 1356 650
    endloop
  endfacet
  facet normal 0 -1 0
    outer loop
      vertex -18 1356 50
      vertex -5.38845e-15 1356 150
      vertex -18 1356 650
    endloop
  endfacet
  facet normal 0 -1 -0
    outer loop
      vertex -5.38845e-15 1356 150
      vertex -18 1356 50
      vertex -5.38845e-15 1356 100
    endloop
  endfacet
  facet normal 0 -1 -0
    outer loop
      vertex -5.38845e-15 1356 100
      vertex -18 1356 50
      vertex -5.38845e-15 1356 50
    endloop
  endfacet
  facet normal 0 -1 -0
    outer loop
      vertex 18 1356 650
      vertex -5.38845e-15 1356 150
      vertex 18 1356 150
    endloop
  endfacet
  facet normal 0 1 0
    outer loop
      vertex -6.61309e-15 1346 150
      vertex 18 1346 650
      vertex 18 1346 150
    endloop
  endfacet
  facet normal 0 1 0
    outer loop
      vertex 18 1346 650
      vertex -6.61309e-15 1346 150
      vertex -18 1346 650
    endloop
  endfacet
  facet normal 0 1 0
    outer loop
      vertex -18 1346 50
      vertex -6.61309e-15 1346 150
      vertex -6.61309e-15 1346 100
    endloop
  endfacet
  facet normal 0 1 0
    outer loop
      vertex -18 1346 50
      vertex -6.61309e-15 1346 100
      vertex -6.61309e-15 1346 50
    endloop
  endfacet
  facet normal 0 1 0
    outer loop
      vertex -6.61309e-15 1346 150
      vertex -18 1346 50
      vertex -18 1346 650
    endloop
  endfacet
  facet normal 0 1 0
    outer loop
      vertex 35 1418 650
      vertex 80 1418 700
      vertex 45 1418 650
    endloop
  endfacet
  facet normal 0 1 0
    outer loop
      vertex 80 1418 700
      vertex 45 1418 50
      vertex 45 1418 650
    endloop
  endfacet
  facet normal 0 1 0
    outer loop
      vertex 45 1418 50
      vertex 80 1418 0
      vertex 35 1418 50
    endloop
  endfacet
  facet normal 0 1 -0
    outer loop
      vertex 80 1418 0
      vertex 45 1418 50
      vertex 80 1418 700
    endloop
  endfacet
  facet normal 0 1 0
    outer loop
      vertex 80 1418 700
      vertex 35 1418 650
      vertex -18 1418 700
    endloop
  endfacet
  facet normal 0 1 -0
    outer loop
      vertex 35 1418 50
      vertex -18 1418 700
      vertex 35 1418 650
    endloop
  endfacet
  facet normal 0 1 0
    outer loop
      vertex 35 1418 50
      vertex -18 1418 0
      vertex -18 1418 700
    endloop
  endfacet
  facet normal 0 1 0
    outer loop
      vertex -18 1418 0
      vertex 35 1418 50
      vertex 80 1418 0
    endloop
  endfacet
  facet normal 0 -1 0
    outer loop
      vertex -4.89467e-31 1400 100
      vertex 35 1400 50
      vertex 35 1400 100
    endloop
  endfacet
  facet normal 0 -1 -0
    outer loop
      vertex 35 1400 50
      vertex -4.89467e-31 1400 0
      vertex 45 1400 50
    endloop
  endfacet
  facet normal 0 -1 0
    outer loop
      vertex -4.89467e-31 1400 0
      vertex 35 1400 50
      vertex -4.89467e-31 1400 100
    endloop
  endfacet
  facet normal 0 -1 0
    outer loop
      vertex 45 1400 50
      vertex 80 1400 100
      vertex 45 1400 100
    endloop
  endfacet
  facet normal 0 -1 0
    outer loop
      vertex 45 1400 50
      vertex 80 1400 0
      vertex 80 1400 100
    endloop
  endfacet
  facet normal 0 -1 0
    outer loop
      vertex 80 1400 0
      vertex 45 1400 50
      vertex -4.89467e-31 1400 0
    endloop
  endfacet
  facet normal -1 0 0
    outer loop
      vertex -18 1400 0
      vertex -18 1418 700
      vertex -18 1418 0
    endloop
  endfacet
  facet normal -1 -0 0
    outer loop
      vertex -18 1418 700
      vertex -18 1400 0
      vertex -18 1400 700
    endloop
  endfacet
  facet normal 1 0 0
    outer loop
      vertex 80 1400 100
      vertex 80 1418 700
      vertex 80 1400 700
    endloop
  endfacet
  facet normal 1 0 0
    outer loop
      vertex 80 1418 700
      vertex 80 1400 100
      vertex 80 1418 0
    endloop
  endfacet
  facet normal 1 0 0
    outer loop
      vertex 80 1418 0
      vertex 80 1400 100
      vertex 80 1400 0
    endloop
  endfacet
  facet normal -1 0 0
    outer loop
      vertex 45 1400 100
      vertex 45 1418 50
      vertex 45 1400 50
    endloop
  endfacet
  facet normal -1 0 0
    outer loop
      vertex 45 1400 150
      vertex 45 1418 50
      vertex 45 1400 100
    endloop
  endfacet
  facet normal -1 0 0
    outer loop
      vertex 45 1418 50
      vertex 45 1400 150
      vertex 45 1418 650
    endloop
  endfacet
  facet normal -1 -0 0
    outer loop
      vertex 45 1418 650
      vertex 45 1400 150
      vertex 45 1400 650
    endloop
  endfacet
  facet normal -0 0 1
    outer loop
      vertex 35 1418 50
      vertex 45 1400 50
      vertex 45 1418 50
    endloop
  endfacet
  facet normal 0 0 1
    outer loop
      vertex 45 1400 50
      vertex 35 1418 50
      vertex 35 1400 50
    endloop
  endfacet
  facet normal 1 0 0
    outer loop
      vertex 35 1400 100
      vertex 35 1418 650
      vertex 35 1400 650
    endloop
  endfacet
  facet normal 1 0 0
    outer loop
      vertex 35 1418 650
      vertex 35 1400 100
      vertex 35 1418 50
    endloop
  endfacet
  facet normal 1 0 0
    outer loop
      vertex 35 1418 50
      vertex 35 1400 100
      vertex 35 1400 50
    endloop
  endfacet
  facet normal 0 1 -0
    outer loop
      vertex 45 1400 100
      vertex 35 1400 150
      vertex 45 1400 150
    endloop
  endfacet
  facet normal 0 1 0
    outer loop
      vertex 35 1400 150
      vertex 45 1400 100
      vertex 35 1400 100
    endloop
  endfacet
  facet normal 0 0 0
    outer loop
      vertex 35 1400 150
      vertex 35 1400 100
      vertex 35 1400 650
    endloop
  endfacet
  facet normal 0 -1 0
    outer loop
      vertex 18 1382 650
      vertex 35 1382 150
      vertex 35 1382 650
    endloop
  endfacet
  facet normal 0 -1 -0
    outer loop
      vertex 35 1382 150
      vertex 18 1382 100
      vertex 45 1382 150
    endloop
  endfacet
  facet normal 0 -1 0
    outer loop
      vertex 18 1382 100
      vertex 35 1382 150
      vertex 18 1382 650
    endloop
  endfacet
  facet normal 0 -1 0
    outer loop
      vertex 45 1382 650
      vertex 36 1382 700
      vertex 36 1382 650
    endloop
  endfacet
  facet normal 0 -1 0
    outer loop
      vertex 36 1382 700
      vertex 45 1382 650
      vertex 80 1382 700
    endloop
  endfacet
  facet normal 0 -1 0
    outer loop
      vertex 45 1382 150
      vertex 80 1382 700
      vertex 45 1382 650
    endloop
  endfacet
  facet normal 0 -1 0
    outer loop
      vertex 45 1382 150
      vertex 80 1382 100
      vertex 80 1382 700
    endloop
  endfacet
  facet normal 0 -1 0
    outer loop
      vertex 80 1382 100
      vertex 45 1382 150
      vertex 18 1382 100
    endloop
  endfacet
  facet normal 0 0 0
    outer loop
      vertex 18 1382 650
      vertex 18 1382 700
      vertex 18 1382 100
    endloop
  endfacet
  facet normal 0 0 -1
    outer loop
      vertex -5.38845e-15 1356 100
      vertex 18 1382 100
      vertex 18 1320 100
    endloop
  endfacet
  facet normal -0 0 -1
    outer loop
      vertex 18 1382 100
      vertex -5.38845e-15 1356 100
      vertex -4.89467e-31 1400 100
    endloop
  endfacet
  facet normal 0 0 -1
    outer loop
      vertex 18 1320 100
      vertex -6.61309e-15 1346 100
      vertex -5.38845e-15 1356 100
    endloop
  endfacet
  facet normal 0 -0 -1
    outer loop
      vertex -6.61309e-15 1346 100
      vertex 18 1320 100
      vertex -9.79717e-15 1320 100
    endloop
  endfacet
  facet normal 0 0 -1
    outer loop
      vertex 80 1382 100
      vertex 45 1400 100
      vertex 80 1400 100
    endloop
  endfacet
  facet normal 0 0 -1
    outer loop
      vertex 18 1382 100
      vertex 45 1400 100
      vertex 80 1382 100
    endloop
  endfacet
  facet normal -0 0 -1
    outer loop
      vertex 45 1400 100
      vertex 18 1382 100
      vertex 35 1400 100
    endloop
  endfacet
  facet normal -0 0 -1
    outer loop
      vertex 35 1400 100
      vertex 18 1382 100
      vertex -4.89467e-31 1400 100
    endloop
  endfacet
  facet normal 1 -0 0
    outer loop
      vertex 80 1382 700
      vertex 80 1400 100
      vertex 80 1400 700
    endloop
  endfacet
  facet normal 1 0 0
    outer loop
      vertex 80 1400 100
      vertex 80 1382 700
      vertex 80 1382 100
    endloop
  endfacet
  facet normal -1 0 0
    outer loop
      vertex 45 1382 150
      vertex 45 1400 650
      vertex 45 1400 150
    endloop
  endfacet
  facet normal -1 -0 0
    outer loop
      vertex 45 1400 650
      vertex 45 1382 150
      vertex 45 1382 650
    endloop
  endfacet
  facet normal -0 0 1
    outer loop
      vertex 35 1400 150
      vertex 45 1382 150
      vertex 45 1400 150
    endloop
  endfacet
  facet normal 0 0 1
    outer loop
      vertex 45 1382 150
      vertex 35 1400 150
      vertex 35 1382 150
    endloop
  endfacet
  facet normal 1 -0 0
    outer loop
      vertex 35 1382 650
      vertex 35 1400 150
      vertex 35 1400 650
    endloop
  endfacet
  facet normal 1 0 0
    outer loop
      vertex 35 1400 150
      vertex 35 1382 650
      vertex 35 1382 150
    endloop
  endfacet
  facet normal 1 0 0
    outer loop
      vertex 18 1364 700
      vertex 18 1356 650
      vertex 18 1364 650
    endloop
  endfacet
  facet normal 1 0 0
    outer loop
      vertex 18 1364 700
      vertex 18 1346 650
      vertex 18 1356 650
    endloop
  endfacet
  facet normal 1 0 0
    outer loop
      vertex 18 1346 650
      vertex 18 1320 700
      vertex 18 1346 150
    endloop
  endfacet
  facet normal 1 -0 0
    outer loop
      vertex 18 1320 700
      vertex 18 1346 650
      vertex 18 1364 700
    endloop
  endfacet
  facet normal 1 0 0
    outer loop
      vertex 18 1356 150
      vertex 18 1382 650
      vertex 18 1364 650
    endloop
  endfacet
  facet normal 1 0 0
    outer loop
      vertex 18 1356 150
      vertex 18 1364 650
      vertex 18 1356 650
    endloop
  endfacet
  facet normal 1 0 0
    outer loop
      vertex 18 1382 650
      vertex 18 1356 150
      vertex 18 1382 100
    endloop
  endfacet
  facet normal 1 -0 0
    outer loop
      vertex 18 1346 150
      vertex 18 1382 100
      vertex 18 1356 150
    endloop
  endfacet
  facet normal 1 0 0
    outer loop
      vertex 18 1346 150
      vertex 18 1320 100
      vertex 18 1382 100
    endloop
  endfacet
  facet normal 1 0 0
    outer loop
      vertex 18 1320 100
      vertex 18 1346 150
      vertex 18 1320 700
    endloop
  endfacet
  facet normal 0 0 0
    outer loop
      vertex 18 1382 700
      vertex 18 1382 650
      vertex 18 1382 100
    endloop
  endfacet
  facet normal -0 0 1
    outer loop
      vertex -5.38845e-15 1356 150
      vertex 18 1346 150
      vertex 18 1356 150
    endloop
  endfacet
  facet normal 0 0 1
    outer loop
      vertex 18 1346 150
      vertex -5.38845e-15 1356 150
      vertex -6.61309e-15 1346 150
    endloop
  endfacet
  facet normal 0 -1 0
    outer loop
      vertex 720 1400 100
      vertex 746 1400 50
      vertex 746 1400 100
    endloop
  endfacet
  facet normal 0 -1 -0
    outer loop
      vertex 746 1400 50
      vertex 720 1400 0
      vertex 756 1400 50
    endloop
  endfacet
  facet normal 0 -1 0
    outer loop
      vertex 720 1400 0
      vertex 746 1400 50
      vertex 720 1400 100
    endloop
  endfacet
  facet normal 0 -1 0
    outer loop
      vertex 756 1400 50
      vertex 800 1400 100
      vertex 756 1400 100
    endloop
  endfacet
  facet normal 0 -1 0
    outer loop
      vertex 800 1400 0
      vertex 756 1400 50
      vertex 720 1400 0
    endloop
  endfacet
  facet normal 0 -1 0
    outer loop
      vertex 756 1400 50
      vertex 800 1400 0
      vertex 800 1400 100
    endloop
  endfacet
  facet normal 0 1 -0
    outer loop
      vertex 756 1400 100
      vertex 746 1400 150
      vertex 756 1400 150
    endloop
  endfacet
  facet normal 0 1 0
    outer loop
      vertex 746 1400 150
      vertex 756 1400 100
      vertex 746 1400 100
    endloop
  endfacet
  facet normal 0 1 0
    outer loop
      vertex 800 1418 700
      vertex 756 1418 650
      vertex 720 1418 700
    endloop
  endfacet
  facet normal 0 1 0
    outer loop
      vertex 800 1418 700
      vertex 756 1418 50
      vertex 756 1418 650
    endloop
  endfacet
  facet normal 0 1 0
    outer loop
      vertex 720 1418 0
      vertex 756 1418 50
      vertex 800 1418 0
    endloop
  endfacet
  facet normal 0 1 -0
    outer loop
      vertex 800 1418 0
      vertex 756 1418 50
      vertex 800 1418 700
    endloop
  endfacet
  facet normal 0 1 -0
    outer loop
      vertex 746 1418 650
      vertex 720 1418 700
      vertex 756 1418 650
    endloop
  endfacet
  facet normal 0 1 -0
    outer loop
      vertex 746 1418 50
      vertex 720 1418 700
      vertex 746 1418 650
    endloop
  endfacet
  facet normal 0 1 0
    outer loop
      vertex 746 1418 50
      vertex 720 1418 0
      vertex 720 1418 700
    endloop
  endfacet
  facet normal 0 1 0
    outer loop
      vertex 756 1418 50
      vertex 720 1418 0
      vertex 746 1418 50
    endloop
  endfacet
  facet normal -1 0 0
    outer loop
      vertex 720 1400 100
      vertex 720 1418 0
      vertex 720 1400 0
    endloop
  endfacet
  facet normal -1 0 0
    outer loop
      vertex 720 1418 0
      vertex 720 1400 100
      vertex 720 1418 700
    endloop
  endfacet
  facet normal -1 0 0
    outer loop
      vertex 720 1382 700
      vertex 720 1400 100
      vertex 720 1382 100
    endloop
  endfacet
  facet normal -1 0 0
    outer loop
      vertex 720 1400 100
      vertex 720 1382 700
      vertex 720 1418 700
    endloop
  endfacet
  facet normal 0 0 -1
    outer loop
      vertex 800 1400 0
      vertex 818 1320 0
      vertex 800 1320 0
    endloop
  endfacet
  facet normal 0 0 -1
    outer loop
      vertex 818 1320 0
      vertex 800 1400 0
      vertex 818 1418 0
    endloop
  endfacet
  facet normal 0 0 -1
    outer loop
      vertex 800 1400 0
      vertex 800 1418 0
      vertex 818 1418 0
    endloop
  endfacet
  facet normal 0 0 -1
    outer loop
      vertex 720 1400 0
      vertex 800 1418 0
      vertex 800 1400 0
    endloop
  endfacet
  facet normal -0 0 -1
    outer loop
      vertex 800 1418 0
      vertex 720 1400 0
      vertex 720 1418 0
    endloop
  endfacet
  facet normal 0 0 -1
    outer loop
      vertex 746 1382 650
      vertex 756 1418 650
      vertex 756 1382 650
    endloop
  endfacet
  facet normal -0 0 -1
    outer loop
      vertex 756 1418 650
      vertex 746 1382 650
      vertex 746 1418 650
    endloop
  endfacet
  facet normal -0 0 1
    outer loop
      vertex 746 1418 50
      vertex 756 1400 50
      vertex 756 1418 50
    endloop
  endfacet
  facet normal 0 0 1
    outer loop
      vertex 756 1400 50
      vertex 746 1418 50
      vertex 746 1400 50
    endloop
  endfacet
  facet normal -1 0 0
    outer loop
      vertex 756 1400 100
      vertex 756 1418 50
      vertex 756 1400 50
    endloop
  endfacet
  facet normal -1 0 0
    outer loop
      vertex 756 1400 150
      vertex 756 1418 50
      vertex 756 1400 100
    endloop
  endfacet
  facet normal -1 0 0
    outer loop
      vertex 756 1418 50
      vertex 756 1400 150
      vertex 756 1418 650
    endloop
  endfacet
  facet normal -1 0 0
    outer loop
      vertex 756 1382 650
      vertex 756 1400 150
      vertex 756 1382 150
    endloop
  endfacet
  facet normal -1 0 0
    outer loop
      vertex 756 1400 150
      vertex 756 1382 650
      vertex 756 1418 650
    endloop
  endfacet
  facet normal 1 0 0
    outer loop
      vertex 746 1418 650
      vertex 746 1400 150
      vertex 746 1418 50
    endloop
  endfacet
  facet normal 1 -0 0
    outer loop
      vertex 746 1382 650
      vertex 746 1400 150
      vertex 746 1418 650
    endloop
  endfacet
  facet normal 1 0 0
    outer loop
      vertex 746 1400 150
      vertex 746 1382 650
      vertex 746 1382 150
    endloop
  endfacet
  facet normal 1 -0 0
    outer loop
      vertex 746 1400 100
      vertex 746 1418 50
      vertex 746 1400 150
    endloop
  endfacet
  facet normal 1 0 0
    outer loop
      vertex 746 1418 50
      vertex 746 1400 100
      vertex 746 1400 50
    endloop
  endfacet
  facet normal 1 0 0
    outer loop
      vertex 818 1418 700
      vertex 818 1365 650
      vertex 818 1418 0
    endloop
  endfacet
  facet normal 1 -0 0
    outer loop
      vertex 818 1320 700
      vertex 818 1365 650
      vertex 818 1418 700
    endloop
  endfacet
  facet normal 1 0 0
    outer loop
      vertex 818 1355 650
      vertex 818 1320 700
      vertex 818 1355 50
    endloop
  endfacet
  facet normal 1 0 0
    outer loop
      vertex 818 1365 650
      vertex 818 1320 700
      vertex 818 1355 650
    endloop
  endfacet
  facet normal 1 -0 0
    outer loop
      vertex 818 1365 50
      vertex 818 1418 0
      vertex 818 1365 650
    endloop
  endfacet
  facet normal 1 0 0
    outer loop
      vertex 818 1320 0
      vertex 818 1365 50
      vertex 818 1355 50
    endloop
  endfacet
  facet normal 1 0 0
    outer loop
      vertex 818 1365 50
      vertex 818 1320 0
      vertex 818 1418 0
    endloop
  endfacet
  facet normal 1 0 0
    outer loop
      vertex 818 1320 0
      vertex 818 1355 50
      vertex 818 1320 700
    endloop
  endfacet
  facet normal -1 0 0
    outer loop
      vertex 800 1400 0
      vertex 800 1365 50
      vertex 800 1400 100
    endloop
  endfacet
  facet normal -1 0 0
    outer loop
      vertex 800 1400 0
      vertex 800 1355 50
      vertex 800 1365 50
    endloop
  endfacet
  facet normal -1 0 0
    outer loop
      vertex 800 1320 0
      vertex 800 1355 50
      vertex 800 1400 0
    endloop
  endfacet
  facet normal -1 0 0
    outer loop
      vertex 800 1320 100
      vertex 800 1355 50
      vertex 800 1320 0
    endloop
  endfacet
  facet normal -1 0 0
    outer loop
      vertex 800 1355 50
      vertex 800 1320 100
      vertex 800 1355 100
    endloop
  endfacet
  facet normal -1 -0 0
    outer loop
      vertex 800 1400 100
      vertex 800 1365 50
      vertex 800 1365 100
    endloop
  endfacet
  facet normal 0 1 -0
    outer loop
      vertex 818 1418 0
      vertex 800 1418 700
      vertex 818 1418 700
    endloop
  endfacet
  facet normal 0 1 0
    outer loop
      vertex 800 1418 700
      vertex 818 1418 0
      vertex 800 1418 0
    endloop
  endfacet
  facet normal 0 -1 0
    outer loop
      vertex 800 1320 100
      vertex 818 1320 700
      vertex 800 1320 700
    endloop
  endfacet
  facet normal 0 -1 0
    outer loop
      vertex 818 1320 0
      vertex 800 1320 100
      vertex 800 1320 0
    endloop
  endfacet
  facet normal 0 -1 0
    outer loop
      vertex 800 1320 100
      vertex 818 1320 0
      vertex 818 1320 700
    endloop
  endfacet
  facet normal 0 1 0
    outer loop
      vertex 818 1355 650
      vertex 800 1355 150
      vertex 800 1355 650
    endloop
  endfacet
  facet normal 0 1 -0
    outer loop
      vertex 818 1355 50
      vertex 800 1355 150
      vertex 818 1355 650
    endloop
  endfacet
  facet normal 0 1 0
    outer loop
      vertex 800 1355 150
      vertex 818 1355 50
      vertex 800 1355 100
    endloop
  endfacet
  facet normal 0 1 0
    outer loop
      vertex 800 1355 100
      vertex 818 1355 50
      vertex 800 1355 50
    endloop
  endfacet
  facet normal -0 0 1
    outer loop
      vertex 800 1365 50
      vertex 818 1355 50
      vertex 818 1365 50
    endloop
  endfacet
  facet normal 0 0 1
    outer loop
      vertex 818 1355 50
      vertex 800 1365 50
      vertex 800 1355 50
    endloop
  endfacet
  facet normal 0 -1 0
    outer loop
      vertex 800 1365 100
      vertex 818 1365 650
      vertex 800 1365 650
    endloop
  endfacet
  facet normal 0 -1 0
    outer loop
      vertex 818 1365 50
      vertex 800 1365 100
      vertex 800 1365 50
    endloop
  endfacet
  facet normal 0 -1 0
    outer loop
      vertex 800 1365 100
      vertex 818 1365 50
      vertex 818 1365 650
    endloop
  endfacet
  facet normal 1 -0 0
    outer loop
      vertex 800 1355 150
      vertex 800 1365 100
      vertex 800 1365 150
    endloop
  endfacet
  facet normal 1 0 0
    outer loop
      vertex 800 1365 100
      vertex 800 1355 150
      vertex 800 1355 100
    endloop
  endfacet
  facet normal 0 0 0
    outer loop
      vertex 800 1365 150
      vertex 800 1365 100
      vertex 800 1365 650
    endloop
  endfacet
  facet normal -1 0 0
    outer loop
      vertex 782 1382 100
      vertex 782 1365 150
      vertex 782 1382 650
    endloop
  endfacet
  facet normal -1 0 0
    outer loop
      vertex 782 1382 100
      vertex 782 1355 150
      vertex 782 1365 150
    endloop
  endfacet
  facet normal -1 -0 0
    outer loop
      vertex 782 1355 150
      vertex 782 1320 100
      vertex 782 1355 650
    endloop
  endfacet
  facet normal -1 0 0
    outer loop
      vertex 782 1320 100
      vertex 782 1355 150
      vertex 782 1382 100
    endloop
  endfacet
  facet normal -1 -0 0
    outer loop
      vertex 782 1382 650
      vertex 782 1365 150
      vertex 782 1365 650
    endloop
  endfacet
  facet normal -1 0 0
    outer loop
      vertex 782 1355 650
      vertex 782 1364 700
      vertex 782 1364 650
    endloop
  endfacet
  facet normal -1 0 0
    outer loop
      vertex 782 1355 650
      vertex 782 1320 700
      vertex 782 1364 700
    endloop
  endfacet
  facet normal -1 0 0
    outer loop
      vertex 782 1320 700
      vertex 782 1355 650
      vertex 782 1320 100
    endloop
  endfacet
  facet normal 0 0 0
    outer loop
      vertex 782 1382 700
      vertex 782 1382 100
      vertex 782 1382 650
    endloop
  endfacet
  facet normal 0 0 -1
    outer loop
      vertex 782 1320 100
      vertex 800 1355 100
      vertex 800 1320 100
    endloop
  endfacet
  facet normal 0 0 -1
    outer loop
      vertex 782 1382 100
      vertex 800 1355 100
      vertex 782 1320 100
    endloop
  endfacet
  facet normal 0 0 -1
    outer loop
      vertex 800 1355 100
      vertex 782 1382 100
      vertex 800 1365 100
    endloop
  endfacet
  facet normal 0 0 -1
    outer loop
      vertex 800 1365 100
      vertex 782 1382 100
      vertex 800 1400 100
    endloop
  endfacet
  facet normal 0 0 -1
    outer loop
      vertex 782 1382 100
      vertex 756 1400 100
      vertex 800 1400 100
    endloop
  endfacet
  facet normal 0 0 -1
    outer loop
      vertex 782 1382 100
      vertex 746 1400 100
      vertex 756 1400 100
    endloop
  endfacet
  facet normal 0 0 -1
    outer loop
      vertex 720 1382 100
      vertex 746 1400 100
      vertex 782 1382 100
    endloop
  endfacet
  facet normal -0 0 -1
    outer loop
      vertex 746 1400 100
      vertex 720 1382 100
      vertex 720 1400 100
    endloop
  endfacet
  facet normal 0 -1 0
    outer loop
      vertex 782 1320 100
      vertex 800 1320 700
      vertex 782 1320 700
    endloop
  endfacet
  facet normal 0 -1 -0
    outer loop
      vertex 800 1320 700
      vertex 782 1320 100
      vertex 800 1320 100
    endloop
  endfacet
  facet normal 0 1 -0
    outer loop
      vertex 800 1355 150
      vertex 782 1355 650
      vertex 800 1355 650
    endloop
  endfacet
  facet normal 0 1 0
    outer loop
      vertex 782 1355 650
      vertex 800 1355 150
      vertex 782 1355 150
    endloop
  endfacet
  facet normal -0 0 1
    outer loop
      vertex 782 1365 150
      vertex 800 1355 150
      vertex 800 1365 150
    endloop
  endfacet
  facet normal 0 0 1
    outer loop
      vertex 800 1355 150
      vertex 782 1365 150
      vertex 782 1355 150
    endloop
  endfacet
  facet normal 0 -1 0
    outer loop
      vertex 782 1365 150
      vertex 800 1365 650
      vertex 782 1365 650
    endloop
  endfacet
  facet normal 0 -1 -0
    outer loop
      vertex 800 1365 650
      vertex 782 1365 150
      vertex 800 1365 150
    endloop
  endfacet
  facet normal 0 -1 0
    outer loop
      vertex 720 1382 700
      vertex 746 1382 650
      vertex 782 1382 700
    endloop
  endfacet
  facet normal 0 -1 0
    outer loop
      vertex 720 1382 700
      vertex 746 1382 150
      vertex 746 1382 650
    endloop
  endfacet
  facet normal 0 -1 -0
    outer loop
      vertex 746 1382 150
      vertex 720 1382 100
      vertex 756 1382 150
    endloop
  endfacet
  facet normal 0 -1 0
    outer loop
      vertex 720 1382 100
      vertex 746 1382 150
      vertex 720 1382 700
    endloop
  endfacet
  facet normal 0 -1 0
    outer loop
      vertex 756 1382 650
      vertex 782 1382 700
      vertex 746 1382 650
    endloop
  endfacet
  facet normal 0 -1 0
    outer loop
      vertex 756 1382 150
      vertex 782 1382 700
      vertex 756 1382 650
    endloop
  endfacet
  facet normal 0 -1 0
    outer loop
      vertex 756 1382 150
      vertex 782 1382 100
      vertex 782 1382 700
    endloop
  endfacet
  facet normal 0 -1 0
    outer loop
      vertex 782 1382 100
      vertex 756 1382 150
      vertex 720 1382 100
    endloop
  endfacet
  facet normal -0 0 1
    outer loop
      vertex 746 1400 150
      vertex 756 1382 150
      vertex 756 1400 150
    endloop
  endfacet
  facet normal 0 0 1
    outer loop
      vertex 756 1382 150
      vertex 746 1400 150
      vertex 746 1382 150
    endloop
  endfacet
  facet normal -1 0 0
    outer loop
      vertex 18 80 650
      vertex 18 1364 700
      vertex 18 1364 650
    endloop
  endfacet
  facet normal -1 -0 0
    outer loop
      vertex 18 1364 700
      vertex 18 80 650
      vertex 18 80 700
    endloop
  endfacet
  facet normal 1 -0 0
    outer loop
      vertex 36 18 700
      vertex 36 1364 650
      vertex 36 1364 700
    endloop
  endfacet
  facet normal 1 0 0
    outer loop
      vertex 36 1364 650
      vertex 36 18 700
      vertex 36 18 650
    endloop
  endfacet
  facet normal 0 -1 0
    outer loop
      vertex 18 18 650
      vertex 36 18 700
      vertex 18 18 700
    endloop
  endfacet
  facet normal 0 -1 -0
    outer loop
      vertex 36 18 700
      vertex 18 18 650
      vertex 36 18 650
    endloop
  endfacet
  facet normal 0 1 -0
    outer loop
      vertex 720 18 650
      vertex 80 18 700
      vertex 720 18 700
    endloop
  endfacet
  facet normal 0 1 0
    outer loop
      vertex 80 18 700
      vertex 720 18 650
      vertex 80 18 650
    endloop
  endfacet
  facet normal 0 -1 0
    outer loop
      vertex 80 0 650
      vertex 720 0 700
      vertex 80 0 700
    endloop
  endfacet
  facet normal 0 -1 -0
    outer loop
      vertex 720 0 700
      vertex 80 0 650
      vertex 720 0 650
    endloop
  endfacet
  facet normal 0 1 -0
    outer loop
      vertex 782 1382 650
      vertex 36 1382 700
      vertex 782 1382 700
    endloop
  endfacet
  facet normal 0 1 0
    outer loop
      vertex 36 1382 700
      vertex 782 1382 650
      vertex 36 1382 650
    endloop
  endfacet
  facet normal 0 -1 0
    outer loop
      vertex 36 1364 650
      vertex 782 1364 700
      vertex 36 1364 700
    endloop
  endfacet
  facet normal 0 -1 -0
    outer loop
      vertex 782 1364 700
      vertex 36 1364 650
      vertex 782 1364 650
    endloop
  endfacet
  facet normal 1 -0 0
    outer loop
      vertex 850 -50 718
      vertex 850 1450 700
      vertex 850 1450 718
    endloop
  endfacet
  facet normal 1 0 0
    outer loop
      vertex 850 1450 700
      vertex 850 -50 718
      vertex 850 -50 700
    endloop
  endfacet
  facet normal -0 0 1
    outer loop
      vertex -50 1450 718
      vertex 850 -50 718
      vertex 850 1450 718
    endloop
  endfacet
  facet normal 0 0 1
    outer loop
      vertex 850 -50 718
      vertex -50 1450 718
      vertex -50 -50 718
    endloop
  endfacet
  facet normal 0 -1 0
    outer loop
      vertex -50 -50 700
      vertex 850 -50 718
      vertex -50 -50 718
    endloop
  endfacet
  facet normal 0 -1 -0
    outer loop
      vertex 850 -50 718
      vertex -50 -50 700
      vertex 850 -50 700
    endloop
  endfacet
  facet normal 0 1 -0
    outer loop
      vertex 850 1450 700
      vertex -50 1450 718
      vertex 850 1450 718
    endloop
  endfacet
  facet normal 0 1 0
    outer loop
      vertex -50 1450 718
      vertex 850 1450 700
      vertex -50 1450 700
    endloop
  endfacet
  facet normal -1 0 0
    outer loop
      vertex -50 -50 700
      vertex -50 1450 718
      vertex -50 1450 700
    endloop
  endfacet
  facet normal -1 -0 0
    outer loop
      vertex -50 1450 718
      vertex -50 -50 700
      vertex -50 -50 718
    endloop
  endfacet
endsolid OpenSCAD_Model
